<svg width="228" height="20" viewBox="0 0 228 20" fill="none" xmlns="http://www.w3.org/2000/svg">
<path d="M223.219 0.546548L227.621 0.0285645V19.5968H223.19V18.2156C222.787 18.6472 222.269 19.0501 221.636 19.4242C221.032 19.7983 220.312 19.9997 219.478 19.9997C218.643 19.9997 217.866 19.8271 217.175 19.5105C216.485 19.1652 215.88 18.7048 215.362 18.1004C214.845 17.4961 214.47 16.7767 214.183 15.9134C213.895 15.0501 213.751 14.1005 213.751 13.0357C213.751 11.9422 213.924 10.935 214.298 10.0429C214.643 9.15084 215.132 8.37386 215.765 7.74077C216.37 7.10768 217.089 6.64725 217.895 6.30192C218.701 5.9566 219.535 5.78394 220.456 5.78394C221.406 5.78394 222.326 5.9566 223.219 6.24437V0.546548ZM223.19 9.66882C222.96 9.49616 222.672 9.35227 222.326 9.23717C221.981 9.12206 221.578 9.09328 221.175 9.09328C220.226 9.09328 219.478 9.4386 218.96 10.1293C218.442 10.8199 218.183 11.712 218.183 12.8343C218.183 13.9854 218.442 14.8774 218.96 15.5105C219.478 16.1436 220.139 16.4602 220.974 16.4602C221.463 16.4602 221.895 16.3738 222.24 16.2012C222.585 16.0285 222.902 15.8271 223.19 15.5393V9.66882Z" fill="#303E47" style="fill:#303E47;fill:color(display-p3 0.1882 0.2431 0.2784);fill-opacity:1;"/>
<path d="M207.604 19.5683H203.172V6.41724L207.604 5.87048V7.82731C208.381 6.44602 209.445 5.75537 210.798 5.75537C211.575 5.75537 212.323 5.95681 213.042 6.30213L212.15 10.2158C211.604 9.9568 211.057 9.81291 210.481 9.81291C209.906 9.81291 209.388 9.98557 208.927 10.2733C208.438 10.5611 208.006 11.0791 207.604 11.7697V19.5683Z" fill="#303E47" style="fill:#303E47;fill:color(display-p3 0.1882 0.2431 0.2784);fill-opacity:1;"/>
<path d="M195.67 13.6115C194.289 13.7841 193.311 14.0143 192.764 14.3021C192.188 14.5899 191.929 15.0503 191.929 15.6258C191.929 16.0863 192.073 16.4316 192.39 16.6906C192.678 16.9496 193.081 17.0647 193.599 17.0647C194.03 17.0647 194.433 17.0071 194.778 16.8345C195.124 16.6618 195.44 16.4604 195.67 16.1726V13.6115ZM195.699 17.9855C195.21 18.5323 194.663 18.9927 194.088 19.3956C193.512 19.7985 192.764 19.9999 191.843 19.9999C191.268 19.9999 190.721 19.9136 190.232 19.7122C189.714 19.5395 189.282 19.2805 188.937 18.9352C188.563 18.5899 188.275 18.2158 188.073 17.7553C187.843 17.2949 187.757 16.8057 187.757 16.2877C187.757 15.6546 187.872 15.0791 188.131 14.5035C188.39 13.9568 188.822 13.4676 189.455 13.0359C190.059 12.633 190.865 12.2877 191.901 12C192.908 11.741 194.174 11.5971 195.67 11.5395V11.2805C195.67 10.5899 195.469 10.0719 195.095 9.72658C194.721 9.41004 194.117 9.23737 193.311 9.23737C192.62 9.23737 191.872 9.38126 191.095 9.64025C190.318 9.89924 189.541 10.2158 188.764 10.5899L187.843 7.3381C188.534 6.964 189.426 6.61868 190.491 6.27335C191.555 5.92803 192.735 5.75537 194.001 5.75537C195.152 5.75537 196.102 5.89926 196.908 6.15825C197.685 6.41724 198.318 6.79134 198.807 7.28055C199.268 7.79853 199.613 8.40284 199.814 9.12227C200.016 9.84169 200.102 10.6762 200.102 11.5971L200.073 15.5683C200.073 16.0287 200.131 16.3165 200.275 16.4316C200.39 16.5467 200.706 16.633 201.167 16.6618L200.735 19.8273C199.268 20.0287 198.145 19.9424 197.397 19.5971C196.62 19.2517 196.073 18.705 195.786 17.9855H195.699Z" fill="#303E47" style="fill:#303E47;fill:color(display-p3 0.1882 0.2431 0.2784);fill-opacity:1;"/>
<path d="M186.041 12.8345C186.041 13.9856 185.84 14.9928 185.466 15.8561C185.063 16.7481 184.545 17.4963 183.912 18.1007C183.25 18.7337 182.473 19.1942 181.61 19.5107C180.718 19.856 179.768 19.9999 178.79 19.9999C177.754 19.9999 176.833 19.856 175.969 19.5395C175.106 19.2517 174.358 18.7913 173.725 18.187C173.092 17.5827 172.574 16.8345 172.228 15.9424C171.854 15.0791 171.682 14.0719 171.682 12.9208C171.682 11.7985 171.854 10.7913 172.228 9.89924C172.602 9.00716 173.12 8.25896 173.782 7.62587C174.444 7.02155 175.221 6.56112 176.113 6.24458C176.977 5.92803 177.926 5.75537 178.962 5.75537C179.941 5.75537 180.89 5.92803 181.754 6.24458C182.617 6.56112 183.365 7.02155 183.998 7.62587C184.631 8.23018 185.12 8.97838 185.495 9.84169C185.84 10.7338 186.041 11.741 186.041 12.8345ZM181.638 12.8633C181.638 11.741 181.379 10.8489 180.919 10.1582C180.459 9.46759 179.768 9.12227 178.847 9.12227C177.926 9.12227 177.236 9.46759 176.775 10.1582C176.315 10.8489 176.084 11.741 176.084 12.892C176.084 14.0431 176.315 14.964 176.775 15.6258C177.236 16.2877 177.955 16.6043 178.876 16.6043C179.797 16.6043 180.487 16.2877 180.948 15.5971C181.408 14.9352 181.638 14.0143 181.638 12.8633Z" fill="#303E47" style="fill:#303E47;fill:color(display-p3 0.1882 0.2431 0.2784);fill-opacity:1;"/>
<path d="M169.972 12.7194C169.972 13.8417 169.771 14.8489 169.426 15.741C169.08 16.633 168.591 17.3812 167.958 18.0143C167.354 18.6474 166.634 19.1366 165.829 19.4819C165.023 19.8273 164.16 19.9712 163.267 19.9712C162.807 19.9712 162.318 19.9424 161.742 19.8273C161.167 19.7122 160.678 19.5971 160.246 19.4244L156.073 19.9999V0.546761L160.505 0V7.56832C160.908 7.13667 161.426 6.73379 162.059 6.33091C162.663 5.95681 163.411 5.75538 164.275 5.75538C165.08 5.75538 165.857 5.92804 166.548 6.24458C167.239 6.5899 167.843 7.05033 168.361 7.65465C168.85 8.25896 169.253 8.97839 169.541 9.84169C169.829 10.705 169.972 11.6834 169.972 12.7194ZM165.512 12.9496C165.512 11.7985 165.282 10.9064 164.821 10.2733C164.361 9.64025 163.642 9.29493 162.721 9.29493C162.231 9.29493 161.8 9.38126 161.455 9.55392C161.109 9.72659 160.793 9.9568 160.476 10.2158V16.1151C161.023 16.4892 161.714 16.6618 162.519 16.6618C163.498 16.6618 164.217 16.3453 164.735 15.6546C165.253 14.964 165.512 14.0719 165.512 12.9496Z" fill="#303E47" style="fill:#303E47;fill:color(display-p3 0.1882 0.2431 0.2784);fill-opacity:1;"/>
<path d="M148.55 19.5683L148.522 11.6546C148.522 10.8489 148.378 10.3021 148.032 9.98558C147.687 9.69781 147.255 9.52515 146.68 9.52515C146.162 9.52515 145.701 9.64026 145.27 9.84169C144.867 10.0431 144.493 10.2733 144.205 10.5323V19.5683H139.773V0.546761L144.205 0V8.02875C144.809 7.36688 145.5 6.82012 146.248 6.38847C147.025 5.98559 147.86 5.75538 148.752 5.75538C150.076 5.75538 151.112 6.18703 151.86 6.99278C152.608 7.79854 152.982 8.92083 152.982 10.3597V19.5683H148.55Z" fill="#303E47" style="fill:#303E47;fill:color(display-p3 0.1882 0.2431 0.2784);fill-opacity:1;"/>
<path d="M137.415 15.5971C137.415 16.2302 137.271 16.8057 137.012 17.3237C136.753 17.8417 136.379 18.3021 135.861 18.705C135.343 19.1078 134.681 19.4244 133.933 19.6546C133.185 19.8848 132.321 19.9999 131.343 19.9999C130.882 19.9999 130.393 19.9999 129.875 19.9424C129.357 19.8848 128.839 19.8273 128.35 19.7122C127.832 19.5971 127.343 19.4819 126.882 19.3381C126.422 19.1942 126.019 19.0215 125.674 18.8201L126.537 15.6258C127.314 16.0287 128.12 16.3453 128.983 16.5755C129.818 16.8057 130.623 16.892 131.429 16.892C132.638 16.892 133.242 16.5467 133.242 15.7985C133.242 15.4244 133.041 15.1366 132.667 14.964C132.293 14.7913 131.717 14.5899 130.969 14.4172C130.163 14.2733 129.472 14.0719 128.839 13.8417C128.206 13.6115 127.688 13.3237 127.257 12.9784C126.796 12.633 126.451 12.2302 126.221 11.741C125.99 11.2805 125.875 10.705 125.875 10.0431C125.875 9.41004 125.99 8.8345 126.278 8.31651C126.537 7.79853 126.911 7.36688 127.429 6.964C127.918 6.5899 128.523 6.30213 129.271 6.07192C130.019 5.87048 130.854 5.75537 131.775 5.75537C132.206 5.75537 132.667 5.78415 133.185 5.8417C133.674 5.89926 134.163 5.98559 134.652 6.10069C135.141 6.2158 135.602 6.33091 136.062 6.47479C136.494 6.61868 136.868 6.76256 137.213 6.90645L136.321 10.0719C135.544 9.6978 134.739 9.41004 133.904 9.17982C133.069 8.97838 132.35 8.86327 131.717 8.86327C130.623 8.86327 130.077 9.2086 130.077 9.87047C130.077 10.2446 130.278 10.5323 130.681 10.705C131.084 10.8777 131.631 11.0503 132.379 11.1942C133.156 11.3669 133.846 11.5683 134.48 11.7985C135.113 12.0287 135.631 12.3165 136.062 12.6618C136.494 13.0071 136.839 13.41 137.069 13.8705C137.3 14.3597 137.415 14.9352 137.415 15.5971Z" fill="#303E47" style="fill:#303E47;fill:color(display-p3 0.1882 0.2431 0.2784);fill-opacity:1;"/>
<path d="M119.062 13.6115C117.681 13.7841 116.702 14.0143 116.156 14.3021C115.58 14.5899 115.321 15.0503 115.321 15.6258C115.321 16.0863 115.465 16.4316 115.782 16.6906C116.069 16.9496 116.472 17.0647 116.99 17.0647C117.422 17.0647 117.825 17.0071 118.17 16.8345C118.515 16.6618 118.832 16.4604 119.062 16.1726V13.6115ZM119.091 17.9855C118.602 18.5323 118.055 18.9927 117.479 19.3956C116.904 19.7985 116.156 19.9999 115.235 19.9999C114.659 19.9999 114.112 19.9136 113.623 19.7122C113.105 19.5395 112.674 19.2805 112.328 18.9352C111.954 18.5899 111.666 18.2158 111.465 17.7553C111.235 17.2949 111.148 16.8057 111.148 16.2877C111.148 15.6546 111.264 15.0791 111.523 14.5035C111.782 13.9568 112.213 13.4676 112.846 13.0359C113.451 12.633 114.256 12.2877 115.292 12C116.3 11.741 117.566 11.5971 119.062 11.5395V11.2805C119.062 10.5899 118.861 10.0719 118.487 9.72658C118.112 9.41004 117.508 9.23737 116.702 9.23737C116.012 9.23737 115.264 9.38126 114.487 9.64025C113.71 9.89924 112.933 10.2158 112.156 10.5899L111.235 7.3381C111.925 6.964 112.818 6.61868 113.882 6.27335C114.947 5.92803 116.127 5.75537 117.393 5.75537C118.544 5.75537 119.494 5.89926 120.299 6.15825C121.076 6.41724 121.71 6.79134 122.199 7.28055C122.659 7.79853 123.005 8.40284 123.206 9.12227C123.407 9.84169 123.494 10.6762 123.494 11.5971L123.465 15.5683C123.465 16.0287 123.523 16.3165 123.666 16.4316C123.781 16.5467 124.098 16.633 124.558 16.6618L124.127 19.8273C122.659 20.0287 121.537 19.9424 120.789 19.5971C120.012 19.2517 119.465 18.705 119.177 17.9855H119.091Z" fill="#303E47" style="fill:#303E47;fill:color(display-p3 0.1882 0.2431 0.2784);fill-opacity:1;"/>
<path d="M109.26 10.446C109.26 11.8273 109.03 13.0935 108.569 14.2158C108.109 15.3381 107.476 16.2877 106.612 17.0935C105.749 17.8993 104.656 18.5036 103.389 18.9352C102.123 19.3669 100.656 19.5683 99.0154 19.5683H92.5693V1.58276H99.3319C100.886 1.58276 102.296 1.81298 103.533 2.21585C104.771 2.64751 105.807 3.25182 106.67 4.0288C107.505 4.80577 108.138 5.72663 108.598 6.82016C109.03 7.91368 109.26 9.12231 109.26 10.446ZM104.656 10.6187C104.656 8.77698 104.166 7.39569 103.246 6.53239C102.325 5.66908 100.915 5.23743 99.0441 5.23743H97.1449V15.9137H99.2744C100.943 15.9137 102.238 15.482 103.217 14.6187C104.166 13.7554 104.656 12.4316 104.656 10.6187Z" fill="#303E47" style="fill:#303E47;fill:color(display-p3 0.1882 0.2431 0.2784);fill-opacity:1;"/>
<path d="M84.845 12.8345C84.845 13.9856 84.6436 14.9928 84.2695 15.8561C83.8666 16.7481 83.3486 17.4963 82.7155 18.1007C82.0537 18.7337 81.2767 19.1942 80.4134 19.5107C79.5213 19.856 78.5717 19.9999 77.5932 19.9999C76.5573 19.9999 75.6364 19.856 74.7731 19.5395C73.9098 19.2517 73.1616 18.7913 72.5285 18.187C71.8954 17.5827 71.3774 16.8345 71.0321 15.9424C70.658 15.0791 70.4854 14.0719 70.4854 12.9208C70.4854 11.7985 70.658 10.7913 71.0321 9.89924C71.4062 9.00716 71.9242 8.25896 72.5861 7.62587C73.2479 7.02155 74.0249 6.56112 74.917 6.24458C75.7803 5.92803 76.7299 5.75537 77.7659 5.75537C78.7443 5.75537 79.694 5.92803 80.5573 6.24458C81.4206 6.56112 82.1688 7.02155 82.8019 7.62587C83.4349 8.23018 83.9242 8.97838 84.2983 9.84169C84.6436 10.7338 84.845 11.741 84.845 12.8345ZM80.4422 12.8633C80.4422 11.741 80.1832 10.8489 79.7227 10.1582C79.2623 9.46759 78.5717 9.12227 77.6508 9.12227C76.7299 9.12227 76.0393 9.46759 75.5789 10.1582C75.1184 10.8489 74.8882 11.741 74.8882 12.892C74.8882 14.0431 75.1184 14.964 75.5789 15.6258C76.0393 16.2877 76.7587 16.6043 77.6796 16.6043C78.6004 16.6043 79.2911 16.2877 79.7515 15.5971C80.2119 14.9352 80.4422 14.0143 80.4422 12.8633Z" fill="#303E47" style="fill:#303E47;fill:color(display-p3 0.1882 0.2431 0.2784);fill-opacity:1;"/>
<path d="M63.6803 19.5683L63.6515 11.6546C63.6515 10.8489 63.5076 10.3021 63.1623 9.98557C62.817 9.6978 62.3565 9.52514 61.7522 9.52514C61.263 9.52514 60.8026 9.64025 60.3997 9.84169C59.9968 10.0431 59.6227 10.2733 59.335 10.5323V19.5683H54.9033V6.41724L59.335 5.87048V8.05752C59.9393 7.39565 60.6299 6.84889 61.4069 6.41724C62.1551 5.98559 62.9896 5.75537 63.8529 5.75537C65.1767 5.75537 66.2414 6.18702 66.9896 6.99278C67.7378 7.79853 68.1119 8.92083 68.1119 10.3597V19.5683H63.6803Z" fill="#303E47" style="fill:#303E47;fill:color(display-p3 0.1882 0.2431 0.2784);fill-opacity:1;"/>
<path d="M43.6637 13.928C43.7212 14.8489 44.0665 15.5395 44.6709 16.0287C45.2464 16.5179 46.1097 16.7481 47.2032 16.7481C47.9226 16.7481 48.6708 16.633 49.419 16.4028C50.1672 16.1726 50.8867 15.8561 51.5773 15.482L52.009 18.9064C51.3183 19.2517 50.5413 19.5107 49.6205 19.7122C48.6996 19.8848 47.7788 19.9999 46.8003 19.9999C45.6493 19.9999 44.6421 19.8273 43.7212 19.5395C42.8004 19.223 41.9946 18.7625 41.3615 18.1582C40.6996 17.5827 40.1817 16.8345 39.8363 15.9712C39.491 15.1079 39.3184 14.1007 39.3184 12.9784C39.3184 11.8848 39.491 10.9064 39.8363 10.0143C40.1817 9.12227 40.6996 8.37407 41.3327 7.74098C41.9658 7.10788 42.7428 6.61868 43.6349 6.27335C44.4982 5.92803 45.4766 5.75537 46.5701 5.75537C48.4694 5.75537 49.9083 6.27336 50.9154 7.30932C51.9226 8.34529 52.4406 9.6978 52.4406 11.3669C52.4406 11.741 52.4118 12.1438 52.3543 12.6043C52.2967 13.0647 52.2392 13.4388 52.1528 13.7266L43.6637 13.8705V13.928ZM48.3255 11.6259V11.3669C48.3255 10.5611 48.1529 9.9568 47.8075 9.49637C47.4622 9.03594 46.973 8.80572 46.2824 8.80572C45.5054 8.80572 44.9011 9.09349 44.4694 9.66903C44.009 10.2446 43.75 10.9064 43.6924 11.6546L48.3255 11.6259Z" fill="#303E47" style="fill:#303E47;fill:color(display-p3 0.1882 0.2431 0.2784);fill-opacity:1;"/>
<path d="M32.4502 19.5683V0.546761L36.8818 0V19.5683H32.4502Z" fill="#303E47" style="fill:#303E47;fill:color(display-p3 0.1882 0.2431 0.2784);fill-opacity:1;"/>
<path d="M30.0169 12.8345C30.0169 13.9856 29.8155 14.9928 29.4414 15.8561C29.0385 16.7481 28.5205 17.4963 27.8874 18.1007C27.2255 18.7337 26.4486 19.1942 25.5853 19.5107C24.6932 19.856 23.7435 19.9999 22.7651 19.9999C21.7291 19.9999 20.8083 19.856 19.945 19.5395C19.0817 19.2517 18.3335 18.7913 17.7004 18.187C17.0673 17.5827 16.5493 16.8345 16.204 15.9424C15.8299 15.0791 15.6572 14.0719 15.6572 12.9208C15.6572 11.7985 15.8299 10.7913 16.204 9.89924C16.5781 9.00716 17.0961 8.25896 17.7579 7.62587C18.4198 7.02155 19.1968 6.56112 20.0889 6.24458C20.9522 5.92803 21.9018 5.75537 22.9378 5.75537C23.9162 5.75537 24.8658 5.92803 25.7291 6.24458C26.5924 6.56112 27.3406 7.02155 27.9737 7.62587C28.6068 8.23018 29.096 8.97838 29.4701 9.84169C29.8155 10.7338 30.0169 11.741 30.0169 12.8345ZM25.614 12.8633C25.614 11.741 25.355 10.8489 24.8946 10.1582C24.4342 9.46759 23.7435 9.12227 22.8227 9.12227C21.9018 9.12227 21.2112 9.46759 20.7507 10.1582C20.2903 10.8489 20.0601 11.741 20.0601 12.892C20.0601 14.0431 20.2903 14.964 20.7507 15.6258C21.2112 16.2877 21.9306 16.6043 22.8514 16.6043C23.7723 16.6043 24.463 16.2877 24.9234 15.5971C25.3838 14.9352 25.614 14.0143 25.614 12.8633Z" fill="#303E47" style="fill:#303E47;fill:color(display-p3 0.1882 0.2431 0.2784);fill-opacity:1;"/>
<path d="M14.3309 7.82735C14.3309 9.95684 13.6402 11.5683 12.259 12.6619C10.8777 13.7842 8.92083 14.3309 6.33091 14.3309L4.57552 14.3597V19.5683H0V1.58276H6.64746C7.91364 1.58276 9.00716 1.75542 9.9568 2.04319C10.9064 2.35974 11.7122 2.79139 12.3741 3.33815C13.0072 3.88491 13.4964 4.54678 13.8417 5.29498C14.1582 6.07196 14.3309 6.90649 14.3309 7.82735ZM9.78414 7.94245C9.78414 6.12951 8.60429 5.23743 6.30214 5.23743H4.46042V10.8489L6.30214 10.8201C7.48199 10.7914 8.3453 10.5324 8.92083 10.0432C9.49637 9.58274 9.78414 8.86331 9.78414 7.94245Z" fill="#303E47" style="fill:#303E47;fill:color(display-p3 0.1882 0.2431 0.2784);fill-opacity:1;"/>
</svg>
