<svg width="89" height="24" viewBox="0 0 89 24" fill="none" xmlns="http://www.w3.org/2000/svg">
<path d="M7.75883 18.6785C7.65903 18.6757 7.55954 18.6735 7.45911 18.668C6.7478 18.6291 6.06109 18.5226 5.40625 18.3601C6.15099 18.5691 6.92915 18.6807 7.69229 18.6807C7.71458 18.6807 7.73671 18.6787 7.75883 18.6785Z" fill="#3F7522" style="fill:#3F7522;fill:color(display-p3 0.2471 0.4588 0.1333);fill-opacity:1;"/>
<path d="M7.17958 20.0762C6.04786 19.611 5.0605 18.8379 4.23438 18.0269C4.23484 19.7565 4.23484 23.5223 4.23484 23.5223C4.23484 23.5223 6.84102 24.6802 10.4132 23.3905C11.8914 22.8571 13.1777 21.8722 14.1374 20.5965C12.0396 21.1961 9.59747 21.0699 7.17958 20.0762Z" fill="#2E5A19" style="fill:#2E5A19;fill:color(display-p3 0.1804 0.3529 0.0980);fill-opacity:1;"/>
<path d="M7.75999 18.6787C7.73787 18.6791 7.71574 18.6809 7.69345 18.6809C6.93032 18.6809 6.15215 18.5695 5.40741 18.3603C5.0031 18.2597 4.61146 18.1371 4.23438 17.9944C4.23438 18.0391 4.23438 17.9796 4.23438 18.0273C5.0605 18.8386 6.04786 19.6117 7.17958 20.0766C9.59747 21.0703 12.0396 21.1967 14.1374 20.5971C14.8832 19.6055 15.4316 18.4385 15.7188 17.1712C15.8998 16.3727 15.9409 15.502 15.8704 14.6455C14.5404 17.1194 11.3828 18.7804 7.75999 18.6787Z" fill="#3F7522" style="fill:#3F7522;fill:color(display-p3 0.2471 0.4588 0.1333);fill-opacity:1;"/>
<path d="M12.6515 8.58521C12.9517 9.225 13.1799 9.92593 13.3153 10.6738C13.8839 13.8159 12.6544 16.7651 10.4793 17.9306C9.68536 18.4152 8.72044 18.6684 7.76172 18.6794C11.3845 18.7813 14.5422 17.1199 15.872 14.646C15.766 13.3592 15.4051 12.1044 14.8677 11.1762C14.2963 10.1892 13.5378 9.30707 12.6515 8.58521Z" fill="#4F8E2B" style="fill:#4F8E2B;fill:color(display-p3 0.3098 0.5569 0.1686);fill-opacity:1;"/>
<path d="M13.3152 10.6732C13.1798 9.92553 12.9516 9.22461 12.6514 8.58481C11.2645 7.45536 9.56196 6.72171 7.75326 6.61739C6.39376 6.53905 5.27148 7.16258 5.27148 8.5478C5.27148 9.86421 6.37892 10.3238 8.44725 10.888C10.5386 11.4585 12.548 12.7016 12.2799 15.1768C12.1446 16.4255 11.4367 17.3458 10.4794 17.9302C12.6543 16.7647 13.884 13.8155 13.3152 10.6732Z" fill="#58A332" style="fill:#58A332;fill:color(display-p3 0.3451 0.6392 0.1961);fill-opacity:1;"/>
<path d="M8.33543 4.60605C8.59075 4.75338 8.83491 4.92931 9.07011 5.09721L9.08419 0C9.08419 0 6.88279 0.152374 5.50302 0.630442C4.12372 1.10851 2.94278 2.01267 2.03125 3.15203C4.04372 2.94282 6.25023 3.40331 8.33543 4.60605Z" fill="#00536C" style="fill:#00536C;fill:color(display-p3 0.0000 0.3255 0.4235);fill-opacity:1;"/>
<path d="M7.88097 4.95042C8.28591 4.97248 8.68249 5.03493 9.0701 5.09943V5.097C8.8349 4.92929 8.59074 4.75298 8.33542 4.60584C6.25022 3.40329 4.04372 2.94242 2.03124 3.15182C0.861296 4.61444 0.138378 6.4652 0.0166016 8.30792C1.51164 6.14811 4.50915 4.7657 7.88097 4.95042Z" fill="#006D8E" style="fill:#006D8E;fill:color(display-p3 0.0000 0.4275 0.5569);fill-opacity:1;"/>
<path d="M0.372264 11.2286C0.926677 12.8812 1.44117 13.8738 2.95709 15.1727C3.25805 15.4305 3.55174 15.6593 3.84899 15.8637C3.22107 14.9861 2.75872 13.9219 2.54411 12.7358C2.10343 10.3011 2.81459 7.97939 4.23521 6.55491C5.01461 5.58756 6.32196 5.12987 7.70032 5.04649C8.57984 4.9932 9.0719 5.11193 9.0719 5.11193V5.09959C8.68428 5.03527 8.28786 4.97282 7.88276 4.95058C4.51094 4.76585 1.51358 6.14846 0.0185394 8.30827C-0.0473773 9.30553 0.0606288 10.3002 0.372264 11.2286Z" fill="#0084AD" style="fill:#0084AD;fill:color(display-p3 0.0000 0.5176 0.6784);fill-opacity:1;"/>
<path d="M2.54378 12.7348C2.7584 13.9207 3.22075 14.9851 3.8488 15.8625C4.87129 16.5649 5.93911 16.9588 7.51354 17.0901C9.11241 17.2232 10.3184 16.4811 10.3916 14.9849C10.458 13.6253 9.39031 13.0991 7.3003 12.5867C4.17715 11.8209 3.36247 10.3199 3.51643 8.42953C3.5791 7.65979 3.84061 7.04281 4.23486 6.55371C2.81442 7.97838 2.10309 10.2997 2.54378 12.7348Z" fill="#009ACB" style="fill:#009ACB;fill:color(display-p3 0.0000 0.6039 0.7961);fill-opacity:1;"/>
<path d="M34.0791 8.8186H35.9196L37.948 15.9292L40.1648 8.86048H41.7334L44.1801 15.9502L45.9368 8.8186H47.8399L44.9537 18.4387H43.3855L40.9387 11.2863L38.5964 18.4387H37.0277L34.0791 8.8186Z" fill="#303E47" style="fill:#303E47;fill:color(display-p3 0.1882 0.2431 0.2784);fill-opacity:1;"/>
<path d="M49.3666 8.77787L51.0814 8.50584V18.3979H49.3666V8.77787ZM50.2242 6.70743C49.4503 6.70743 49.0947 6.12167 49.0947 5.47347C49.0947 4.82526 49.4503 4.2395 50.2242 4.2395C50.9978 4.2395 51.3534 4.82526 51.3534 5.47347C51.3534 6.12167 50.9978 6.70743 50.2242 6.70743Z" fill="#303E47" style="fill:#303E47;fill:color(display-p3 0.1882 0.2431 0.2784);fill-opacity:1;"/>
<path d="M68.1292 12.3737C68.1292 10.9516 67.4603 10.0106 65.9541 10.0106C64.3021 10.0106 63.382 11.307 63.2147 12.562L68.1292 12.5201V12.3737ZM66.2888 17.1211C67.2928 17.1211 68.3801 16.849 69.154 16.3263L69.4677 17.9157C68.6105 18.4386 67.4812 18.7105 66.2473 18.7105C63.3611 18.7105 61.3955 16.6398 61.3955 13.7122C61.3955 10.617 63.4448 8.50464 66.1216 8.50464C68.4639 8.50464 69.7815 9.96876 69.7815 12.2482C69.7815 12.771 69.7186 13.3565 69.5722 13.775H68.5684C67.9619 13.775 67.1673 13.775 66.3518 13.7957C65.4108 13.8169 64.3232 13.8169 63.1311 13.8169V13.9002C63.1937 15.7826 64.4487 17.1211 66.2888 17.1211Z" fill="#303E47" style="fill:#303E47;fill:color(display-p3 0.1882 0.2431 0.2784);fill-opacity:1;"/>
<path d="M78.0608 12.3751C78.0608 10.7022 77.4333 10.1585 76.0743 10.1585C75.0701 10.1585 74.1289 10.6812 73.5645 11.2042V18.3982H71.8496V8.77814L73.5645 8.5061V9.94928C74.4638 9.04998 75.5721 8.5061 76.6808 8.5061C78.6254 8.5061 79.7756 9.71932 79.7756 11.8105V18.3982H78.0608V12.3751Z" fill="#303E47" style="fill:#303E47;fill:color(display-p3 0.1882 0.2431 0.2784);fill-opacity:1;"/>
<path d="M29.227 10.9099C27.1567 10.3452 26.0482 9.8853 26.0482 8.56758C26.0482 7.48019 26.8013 6.62277 28.704 6.62277C29.8472 6.62277 31.1077 7.02288 32.1008 7.66417V5.77788C31.0518 5.26691 29.9102 5.01245 28.6833 5.01245C26.0903 5.01245 24.3124 6.49732 24.3124 8.69322C24.3124 11.2236 26.3619 12.0184 28.223 12.5202C30.3772 13.0848 31.3601 13.5868 31.3601 14.9253C31.3601 16.2428 30.1889 17.1212 28.5161 17.1212C27.0193 17.1212 25.3041 16.4165 24.1533 15.5677V17.5061C25.4006 18.3013 26.9673 18.7106 28.4741 18.7106C31.2139 18.7106 33.0751 17.0584 33.0751 14.7998C33.0751 12.3321 31.1303 11.4119 29.227 10.9099Z" fill="#303E47" style="fill:#303E47;fill:color(display-p3 0.1882 0.2431 0.2784);fill-opacity:1;"/>
<path d="M57.062 12.8132C55.8703 12.4787 54.8454 12.2068 54.8454 11.2657C54.8454 10.492 55.5143 10.0738 56.5391 10.0738C57.352 10.0738 58.4557 10.3437 59.2705 10.7807V9.02021C58.4682 8.69863 57.5539 8.50513 56.623 8.50513C54.699 8.50513 53.1932 9.65533 53.1932 11.412C53.1932 13.1688 54.6778 13.8172 56.0373 14.2145C57.1458 14.5491 58.2958 14.8417 58.2958 15.8038C58.2958 16.6613 57.4803 17.1633 56.3931 17.1633C55.4293 17.1633 53.8801 16.7364 53.0312 16.0138V17.8472C53.9289 18.4025 55.1909 18.7319 56.351 18.7319C58.4424 18.7319 59.969 17.4977 59.969 15.6784C59.969 13.8379 58.4635 13.2106 57.062 12.8132Z" fill="#303E47" style="fill:#303E47;fill:color(display-p3 0.1882 0.2431 0.2784);fill-opacity:1;"/>
<path d="M85.6802 12.8132C84.4885 12.4787 83.4637 12.2068 83.4637 11.2657C83.4637 10.492 84.1327 10.0738 85.1574 10.0738C85.9702 10.0738 87.074 10.3437 87.8888 10.7807V9.02021C87.0865 8.69863 86.1721 8.50513 85.2414 8.50513C83.317 8.50513 81.8113 9.65533 81.8113 11.412C81.8113 13.1688 83.296 13.8172 84.6554 14.2145C85.764 14.5491 86.9142 14.8417 86.9142 15.8038C86.9142 16.6613 86.0984 17.1633 85.0112 17.1633C84.0476 17.1633 82.4982 16.7364 81.6494 16.0138V17.8472C82.547 18.4025 83.8092 18.7319 84.9692 18.7319C87.0606 18.7319 88.5873 17.4977 88.5873 15.6784C88.5873 13.8379 87.0815 13.2106 85.6802 12.8132Z" fill="#303E47" style="fill:#303E47;fill:color(display-p3 0.1882 0.2431 0.2784);fill-opacity:1;"/>
</svg>
