<svg width="112" height="26" viewBox="0 0 112 26" fill="none" xmlns="http://www.w3.org/2000/svg">
<path d="M4.1499 22.5105C4.09652 22.509 4.04331 22.5078 3.98959 22.5049C3.60914 22.4841 3.24185 22.4271 2.8916 22.3402C3.28993 22.452 3.70614 22.5117 4.11431 22.5117C4.12623 22.5117 4.13807 22.5106 4.1499 22.5105Z" fill="#3F7522" style="fill:#3F7522;fill:color(display-p3 0.2471 0.4588 0.1333);fill-opacity:1;"/>
<path d="M3.83992 23.258C3.23461 23.0092 2.70651 22.5957 2.26465 22.1619C2.2649 23.087 2.2649 25.1012 2.2649 25.1012C2.2649 25.1012 3.65884 25.7205 5.56947 25.0307C6.36008 24.7454 7.04807 24.2186 7.56136 23.5363C6.43937 23.857 5.13315 23.7895 3.83992 23.258Z" fill="#2E5A19" style="fill:#2E5A19;fill:color(display-p3 0.1804 0.3529 0.0980);fill-opacity:1;"/>
<path d="M4.15036 22.5105C4.13853 22.5107 4.12669 22.5117 4.11477 22.5117C3.7066 22.5117 3.29039 22.4521 2.89206 22.3402C2.67581 22.2864 2.46634 22.2208 2.26465 22.1445C2.26465 22.1684 2.26465 22.1366 2.26465 22.1621C2.70651 22.596 3.23461 23.0095 3.83992 23.2582C5.13315 23.7897 6.43937 23.8573 7.56136 23.5366C7.96027 23.0062 8.25357 22.382 8.40718 21.7042C8.50401 21.2771 8.52602 20.8114 8.48828 20.3533C7.77695 21.6765 6.08805 22.5649 4.15036 22.5105Z" fill="#3F7522" style="fill:#3F7522;fill:color(display-p3 0.2471 0.4588 0.1333);fill-opacity:1;"/>
<path d="M6.7667 17.1118C6.92726 17.454 7.04933 17.8289 7.12175 18.2289C7.42589 19.9095 6.76827 21.4869 5.6049 22.1103C5.18025 22.3695 4.66415 22.5049 4.15137 22.5108C6.08905 22.5653 7.77796 21.6767 8.48921 20.3535C8.43252 19.6652 8.23952 18.9941 7.95209 18.4976C7.64645 17.9697 7.24075 17.4979 6.7667 17.1118Z" fill="#4F8E2B" style="fill:#4F8E2B;fill:color(display-p3 0.3098 0.5569 0.1686);fill-opacity:1;"/>
<path d="M7.12159 18.2286C7.04917 17.8287 6.9271 17.4538 6.76655 17.1116C6.02476 16.5075 5.11414 16.1151 4.14674 16.0593C3.4196 16.0174 2.81934 16.3509 2.81934 17.0918C2.81934 17.7959 3.41166 18.0417 4.51793 18.3435C5.63652 18.6486 6.71126 19.3135 6.56784 20.6374C6.4955 21.3053 6.11687 21.7975 5.60483 22.1101C6.76812 21.4867 7.42582 19.9093 7.12159 18.2286Z" fill="#58A332" style="fill:#58A332;fill:color(display-p3 0.3451 0.6392 0.1961);fill-opacity:1;"/>
<path d="M4.45779 14.9836C4.59435 15.0624 4.72494 15.1565 4.85074 15.2463L4.85827 12.52C4.85827 12.52 3.68083 12.6015 2.94285 12.8572C2.20512 13.1129 1.57348 13.5965 1.08594 14.2059C2.16233 14.094 3.3425 14.3403 4.45779 14.9836Z" fill="#00536C" style="fill:#00536C;fill:color(display-p3 0.0000 0.3255 0.4235);fill-opacity:1;"/>
<path d="M4.21512 15.1678C4.43171 15.1796 4.64382 15.213 4.85114 15.2475V15.2462C4.72534 15.1565 4.59475 15.0622 4.45819 14.9835C3.3429 14.3403 2.16273 14.0938 1.08634 14.2058C0.460582 14.9881 0.0739221 15.978 0.00878906 16.9636C0.808427 15.8084 2.41167 15.069 4.21512 15.1678Z" fill="#006D8E" style="fill:#006D8E;fill:color(display-p3 0.0000 0.4275 0.5569);fill-opacity:1;"/>
<path d="M0.199109 18.5258C0.495642 19.4097 0.770823 19.9406 1.58163 20.6353C1.7426 20.7732 1.89968 20.8956 2.05867 21.0049C1.72282 20.5355 1.47553 19.9663 1.36074 19.3319C1.12504 18.0297 1.50541 16.7879 2.26524 16.026C2.68211 15.5086 3.38136 15.2638 4.11859 15.2192C4.58901 15.1907 4.85219 15.2542 4.85219 15.2542V15.2476C4.64487 15.2132 4.43284 15.1798 4.21617 15.1679C2.41272 15.0691 0.809554 15.8086 0.00991601 16.9638C-0.0253402 17.4972 0.0324279 18.0292 0.199109 18.5258Z" fill="#0084AD" style="fill:#0084AD;fill:color(display-p3 0.0000 0.5176 0.6784);fill-opacity:1;"/>
<path d="M1.3604 19.3313C1.47519 19.9656 1.72248 20.5349 2.0584 21.0042C2.60529 21.3799 3.17642 21.5906 4.01852 21.6608C4.87369 21.732 5.51873 21.3351 5.55787 20.5348C5.59338 19.8076 5.02233 19.5262 3.90447 19.2521C2.23402 18.8425 1.79828 18.0397 1.88063 17.0286C1.91415 16.6169 2.05402 16.2869 2.26489 16.0253C1.50515 16.7873 1.12469 18.0289 1.3604 19.3313Z" fill="#009ACB" style="fill:#009ACB;fill:color(display-p3 0.0000 0.6039 0.7961);fill-opacity:1;"/>
<path d="M18.2275 17.2369H19.2119L20.2968 21.0401L21.4825 17.2593H22.3215L23.6301 21.0513L24.5697 17.2369H25.5876L24.0439 22.3823H23.2051L21.8964 18.5568L20.6436 22.3823H19.8046L18.2275 17.2369Z" fill="#303E47" style="fill:#303E47;fill:color(display-p3 0.1882 0.2431 0.2784);fill-opacity:1;"/>
<path d="M26.4042 17.215L27.3214 17.0695V22.3604H26.4042V17.215ZM26.8629 16.1076C26.449 16.1076 26.2588 15.7943 26.2588 15.4476C26.2588 15.1009 26.449 14.7876 26.8629 14.7876C27.2767 14.7876 27.4669 15.1009 27.4669 15.4476C27.4669 15.7943 27.2767 16.1076 26.8629 16.1076Z" fill="#303E47" style="fill:#303E47;fill:color(display-p3 0.1882 0.2431 0.2784);fill-opacity:1;"/>
<path d="M36.4395 19.1383C36.4395 18.3777 36.0817 17.8744 35.2761 17.8744C34.3925 17.8744 33.9004 18.5678 33.8109 19.239L36.4395 19.2166V19.1383ZM35.4551 21.6775C35.9921 21.6775 36.5737 21.532 36.9876 21.2524L37.1554 22.1025C36.6969 22.3822 36.0929 22.5276 35.4329 22.5276C33.8892 22.5276 32.8379 21.4201 32.8379 19.8542C32.8379 18.1987 33.934 17.0689 35.3657 17.0689C36.6185 17.0689 37.3232 17.852 37.3232 19.0712C37.3232 19.3508 37.2896 19.664 37.2113 19.8878H36.6744C36.35 19.8878 35.925 19.8878 35.4888 19.8989C34.9855 19.9102 34.4038 19.9102 33.7662 19.9102V19.9548C33.7997 20.9616 34.4709 21.6775 35.4551 21.6775Z" fill="#303E47" style="fill:#303E47;fill:color(display-p3 0.1882 0.2431 0.2784);fill-opacity:1;"/>
<path d="M41.7518 19.1389C41.7518 18.2441 41.4162 17.9533 40.6893 17.9533C40.1522 17.9533 39.6488 18.2329 39.3469 18.5126V22.3604H38.4297V17.215L39.3469 17.0695V17.8414C39.8279 17.3604 40.4207 17.0695 41.0137 17.0695C42.0538 17.0695 42.669 17.7184 42.669 18.8369V22.3604H41.7518V19.1389Z" fill="#303E47" style="fill:#303E47;fill:color(display-p3 0.1882 0.2431 0.2784);fill-opacity:1;"/>
<path d="M15.6326 18.3553C14.5253 18.0533 13.9324 17.8073 13.9324 17.1025C13.9324 16.5209 14.3352 16.0623 15.3529 16.0623C15.9643 16.0623 16.6385 16.2763 17.1697 16.6193V15.6104C16.6086 15.3371 15.998 15.201 15.3418 15.201C13.9549 15.201 13.004 15.9952 13.004 17.1697C13.004 18.5231 14.1002 18.9482 15.0956 19.2166C16.2478 19.5186 16.7735 19.7871 16.7735 20.503C16.7735 21.2077 16.1471 21.6775 15.2524 21.6775C14.4518 21.6775 13.5344 21.3006 12.9189 20.8466V21.8834C13.586 22.3087 14.424 22.5276 15.2299 22.5276C16.6953 22.5276 17.6908 21.6439 17.6908 20.4359C17.6908 19.116 16.6506 18.6238 15.6326 18.3553Z" fill="#303E47" style="fill:#303E47;fill:color(display-p3 0.1882 0.2431 0.2784);fill-opacity:1;"/>
<path d="M30.5202 19.3734C29.8828 19.1945 29.3346 19.0491 29.3346 18.5457C29.3346 18.1319 29.6924 17.9082 30.2405 17.9082C30.6753 17.9082 31.2656 18.0526 31.7014 18.2863V17.3447C31.2723 17.1727 30.7833 17.0692 30.2854 17.0692C29.2563 17.0692 28.4509 17.6844 28.4509 18.624C28.4509 19.5636 29.245 19.9104 29.9721 20.1229C30.565 20.3019 31.1801 20.4584 31.1801 20.973C31.1801 21.4316 30.7439 21.7001 30.1624 21.7001C29.6469 21.7001 28.8183 21.4718 28.3643 21.0853V22.0659C28.8444 22.3629 29.5194 22.5391 30.1399 22.5391C31.2585 22.5391 32.075 21.879 32.075 20.9059C32.075 19.9215 31.2698 19.586 30.5202 19.3734Z" fill="#303E47" style="fill:#303E47;fill:color(display-p3 0.1882 0.2431 0.2784);fill-opacity:1;"/>
<path d="M45.8268 19.3734C45.1894 19.1945 44.6413 19.0491 44.6413 18.5457C44.6413 18.1319 44.9991 17.9082 45.5472 17.9082C45.9819 17.9082 46.5723 18.0526 47.0081 18.2863V17.3447C46.579 17.1727 46.0899 17.0692 45.5921 17.0692C44.5628 17.0692 43.7575 17.6844 43.7575 18.624C43.7575 19.5636 44.5516 19.9104 45.2787 20.1229C45.8716 20.3019 46.4868 20.4584 46.4868 20.973C46.4868 21.4316 46.0505 21.7001 45.469 21.7001C44.9536 21.7001 44.1249 21.4718 43.6709 21.0853V22.0659C44.151 22.3629 44.8261 22.5391 45.4465 22.5391C46.5651 22.5391 47.3817 21.879 47.3817 20.9059C47.3817 19.9215 46.5763 19.586 45.8268 19.3734Z" fill="#303E47" style="fill:#303E47;fill:color(display-p3 0.1882 0.2431 0.2784);fill-opacity:1;"/>
<path d="M109.506 0.265916L111.648 0.013916V9.53392H109.492V8.86192C109.296 9.07192 109.044 9.26792 108.736 9.44992C108.442 9.63192 108.092 9.72992 107.686 9.72992C107.28 9.72992 106.902 9.64592 106.566 9.49192C106.23 9.32392 105.936 9.09992 105.684 8.80592C105.432 8.51192 105.25 8.16192 105.11 7.74192C104.97 7.32192 104.9 6.85992 104.9 6.34192C104.9 5.80992 104.984 5.31992 105.166 4.88592C105.334 4.45192 105.572 4.07392 105.88 3.76592C106.174 3.45792 106.524 3.23392 106.916 3.06592C107.308 2.89792 107.714 2.81392 108.162 2.81392C108.624 2.81392 109.072 2.89792 109.506 3.03792V0.265916ZM109.492 4.70392C109.38 4.61992 109.24 4.54992 109.072 4.49392C108.904 4.43792 108.708 4.42392 108.512 4.42392C108.05 4.42392 107.686 4.59192 107.434 4.92792C107.182 5.26392 107.056 5.69792 107.056 6.24392C107.056 6.80392 107.182 7.23792 107.434 7.54592C107.686 7.85392 108.008 8.00792 108.414 8.00792C108.652 8.00792 108.862 7.96592 109.03 7.88192C109.198 7.79792 109.352 7.69992 109.492 7.55992V4.70392Z" fill="#303E47" style="fill:#303E47;fill:color(display-p3 0.1882 0.2431 0.2784);fill-opacity:1;"/>
<path d="M101.91 9.52005H99.7539V3.12205L101.91 2.85605V3.80805C102.288 3.13605 102.806 2.80005 103.464 2.80005C103.842 2.80005 104.206 2.89805 104.556 3.06605L104.122 4.97005C103.856 4.84405 103.59 4.77405 103.31 4.77405C103.03 4.77405 102.778 4.85805 102.554 4.99805C102.316 5.13805 102.106 5.39005 101.91 5.72605V9.52005Z" fill="#303E47" style="fill:#303E47;fill:color(display-p3 0.1882 0.2431 0.2784);fill-opacity:1;"/>
<path d="M96.1039 6.62205C95.4319 6.70605 94.9559 6.81805 94.6899 6.95805C94.4099 7.09805 94.2839 7.32205 94.2839 7.60205C94.2839 7.82605 94.3539 7.99405 94.5079 8.12005C94.6479 8.24605 94.8439 8.30205 95.0959 8.30205C95.3059 8.30205 95.5019 8.27405 95.6699 8.19005C95.8379 8.10605 95.9919 8.00805 96.1039 7.86805V6.62205ZM96.1179 8.75005C95.8799 9.01605 95.6139 9.24005 95.3339 9.43605C95.0539 9.63205 94.6899 9.73005 94.2419 9.73005C93.9619 9.73005 93.6959 9.68805 93.4579 9.59005C93.2059 9.50605 92.9959 9.38005 92.8279 9.21205C92.6459 9.04405 92.5059 8.86205 92.4079 8.63805C92.2959 8.41405 92.2539 8.17605 92.2539 7.92405C92.2539 7.61605 92.3099 7.33605 92.4359 7.05605C92.5619 6.79005 92.7719 6.55205 93.0799 6.34205C93.3739 6.14605 93.7659 5.97805 94.2699 5.83805C94.7599 5.71205 95.3759 5.64205 96.1039 5.61405V5.48805C96.1039 5.15205 96.0059 4.90005 95.8239 4.73205C95.6419 4.57805 95.3479 4.49405 94.9559 4.49405C94.6199 4.49405 94.2559 4.56405 93.8779 4.69005C93.4999 4.81605 93.1219 4.97005 92.7439 5.15205L92.2959 3.57005C92.6319 3.38805 93.0659 3.22005 93.5839 3.05205C94.1019 2.88405 94.6759 2.80005 95.2919 2.80005C95.8519 2.80005 96.3139 2.87005 96.7059 2.99605C97.0839 3.12205 97.3919 3.30405 97.6299 3.54205C97.8539 3.79405 98.0219 4.08805 98.1199 4.43805C98.2179 4.78805 98.2599 5.19405 98.2599 5.64205L98.2459 7.57405C98.2459 7.79805 98.2739 7.93805 98.3439 7.99405C98.3999 8.05005 98.5539 8.09205 98.7779 8.10605L98.5679 9.64605C97.8539 9.74405 97.3079 9.70205 96.9439 9.53405C96.5659 9.36605 96.2999 9.10005 96.1599 8.75005H96.1179Z" fill="#303E47" style="fill:#303E47;fill:color(display-p3 0.1882 0.2431 0.2784);fill-opacity:1;"/>
<path d="M91.4196 6.24405C91.4196 6.80405 91.3216 7.29405 91.1396 7.71405C90.9436 8.14805 90.6916 8.51205 90.3836 8.80605C90.0616 9.11405 89.6836 9.33805 89.2636 9.49205C88.8296 9.66005 88.3676 9.73005 87.8916 9.73005C87.3876 9.73005 86.9396 9.66005 86.5196 9.50605C86.0996 9.36605 85.7356 9.14205 85.4276 8.84805C85.1196 8.55405 84.8676 8.19005 84.6996 7.75605C84.5176 7.33605 84.4336 6.84605 84.4336 6.28605C84.4336 5.74005 84.5176 5.25005 84.6996 4.81605C84.8816 4.38205 85.1336 4.01805 85.4556 3.71005C85.7776 3.41605 86.1556 3.19205 86.5896 3.03805C87.0096 2.88405 87.4716 2.80005 87.9756 2.80005C88.4516 2.80005 88.9136 2.88405 89.3336 3.03805C89.7536 3.19205 90.1176 3.41605 90.4256 3.71005C90.7336 4.00405 90.9716 4.36805 91.1536 4.78805C91.3216 5.22205 91.4196 5.71205 91.4196 6.24405ZM89.2776 6.25805C89.2776 5.71205 89.1516 5.27805 88.9276 4.94205C88.7036 4.60605 88.3676 4.43805 87.9196 4.43805C87.4716 4.43805 87.1356 4.60605 86.9116 4.94205C86.6876 5.27805 86.5756 5.71205 86.5756 6.27205C86.5756 6.83205 86.6876 7.28005 86.9116 7.60205C87.1356 7.92405 87.4856 8.07805 87.9336 8.07805C88.3816 8.07805 88.7176 7.92405 88.9416 7.58805C89.1656 7.26605 89.2776 6.81805 89.2776 6.25805Z" fill="#303E47" style="fill:#303E47;fill:color(display-p3 0.1882 0.2431 0.2784);fill-opacity:1;"/>
<path d="M83.6018 6.188C83.6018 6.734 83.5038 7.224 83.3358 7.658C83.1678 8.092 82.9298 8.456 82.6218 8.764C82.3278 9.072 81.9778 9.31 81.5858 9.478C81.1938 9.646 80.7738 9.716 80.3398 9.716C80.1158 9.716 79.8778 9.702 79.5978 9.646C79.3178 9.59 79.0799 9.534 78.8699 9.45L76.8398 9.73V0.266L78.9958 0V3.682C79.1918 3.472 79.4438 3.276 79.7518 3.08C80.0458 2.898 80.4098 2.8 80.8298 2.8C81.2218 2.8 81.5998 2.884 81.9358 3.038C82.2718 3.206 82.5658 3.43 82.8178 3.724C83.0558 4.018 83.2518 4.368 83.3918 4.788C83.5318 5.208 83.6018 5.684 83.6018 6.188ZM81.4318 6.3C81.4318 5.74 81.3198 5.306 81.0958 4.998C80.8718 4.69 80.5218 4.522 80.0738 4.522C79.8358 4.522 79.6258 4.564 79.4578 4.648C79.2898 4.732 79.1358 4.844 78.9818 4.97V7.84C79.2478 8.022 79.5838 8.106 79.9758 8.106C80.4518 8.106 80.8018 7.952 81.0538 7.616C81.3058 7.28 81.4318 6.846 81.4318 6.3Z" fill="#303E47" style="fill:#303E47;fill:color(display-p3 0.1882 0.2431 0.2784);fill-opacity:1;"/>
<path d="M73.1802 9.52L73.1662 5.67C73.1662 5.278 73.0962 5.012 72.9282 4.858C72.7602 4.718 72.5502 4.634 72.2702 4.634C72.0182 4.634 71.7942 4.69 71.5842 4.788C71.3882 4.886 71.2062 4.998 71.0662 5.124V9.52H68.9102V0.266L71.0662 0V3.906C71.3602 3.584 71.6962 3.318 72.0602 3.108C72.4382 2.912 72.8442 2.8 73.2782 2.8C73.9222 2.8 74.4262 3.01 74.7902 3.402C75.1542 3.794 75.3362 4.34 75.3362 5.04V9.52H73.1802Z" fill="#303E47" style="fill:#303E47;fill:color(display-p3 0.1882 0.2431 0.2784);fill-opacity:1;"/>
<path d="M67.7628 7.58805C67.7628 7.89605 67.6928 8.17605 67.5668 8.42805C67.4408 8.68005 67.2588 8.90405 67.0068 9.10005C66.7548 9.29605 66.4328 9.45005 66.0688 9.56205C65.7048 9.67405 65.2848 9.73005 64.8088 9.73005C64.5848 9.73005 64.3468 9.73005 64.0948 9.70205C63.8428 9.67405 63.5908 9.64605 63.3528 9.59005C63.1008 9.53405 62.8628 9.47805 62.6388 9.40805C62.4148 9.33805 62.2188 9.25405 62.0508 9.15605L62.4708 7.60205C62.8488 7.79805 63.2408 7.95205 63.6608 8.06405C64.0668 8.17605 64.4588 8.21805 64.8508 8.21805C65.4388 8.21805 65.7328 8.05005 65.7328 7.68605C65.7328 7.50405 65.6348 7.36405 65.4528 7.28005C65.2708 7.19605 64.9908 7.09805 64.6268 7.01405C64.2348 6.94405 63.8988 6.84605 63.5908 6.73405C63.2828 6.62205 63.0308 6.48205 62.8208 6.31405C62.5968 6.14605 62.4288 5.95005 62.3168 5.71205C62.2048 5.48805 62.1488 5.20805 62.1488 4.88605C62.1488 4.57805 62.2048 4.29805 62.3448 4.04605C62.4708 3.79405 62.6528 3.58405 62.9048 3.38805C63.1428 3.20605 63.4368 3.06605 63.8008 2.95405C64.1648 2.85605 64.5708 2.80005 65.0188 2.80005C65.2288 2.80005 65.4528 2.81405 65.7048 2.84205C65.9428 2.87005 66.1808 2.91205 66.4188 2.96805C66.6568 3.02405 66.8808 3.08005 67.1048 3.15005C67.3148 3.22005 67.4968 3.29005 67.6648 3.36005L67.2308 4.90005C66.8528 4.71805 66.4608 4.57805 66.0548 4.46605C65.6488 4.36805 65.2988 4.31205 64.9908 4.31205C64.4588 4.31205 64.1928 4.48005 64.1928 4.80205C64.1928 4.98405 64.2908 5.12405 64.4868 5.20805C64.6828 5.29205 64.9488 5.37605 65.3128 5.44605C65.6908 5.53005 66.0268 5.62805 66.3348 5.74005C66.6428 5.85205 66.8948 5.99205 67.1048 6.16005C67.3148 6.32805 67.4828 6.52405 67.5948 6.74805C67.7068 6.98605 67.7628 7.26605 67.7628 7.58805Z" fill="#303E47" style="fill:#303E47;fill:color(display-p3 0.1882 0.2431 0.2784);fill-opacity:1;"/>
<path d="M58.8344 6.62205C58.1624 6.70605 57.6864 6.81805 57.4204 6.95805C57.1404 7.09805 57.0144 7.32205 57.0144 7.60205C57.0144 7.82605 57.0844 7.99405 57.2384 8.12005C57.3784 8.24605 57.5744 8.30205 57.8264 8.30205C58.0364 8.30205 58.2324 8.27405 58.4004 8.19005C58.5684 8.10605 58.7224 8.00805 58.8344 7.86805V6.62205ZM58.8484 8.75005C58.6104 9.01605 58.3444 9.24005 58.0644 9.43605C57.7844 9.63205 57.4204 9.73005 56.9724 9.73005C56.6924 9.73005 56.4264 9.68805 56.1884 9.59005C55.9364 9.50605 55.7264 9.38005 55.5584 9.21205C55.3764 9.04405 55.2364 8.86205 55.1384 8.63805C55.0264 8.41405 54.9844 8.17605 54.9844 7.92405C54.9844 7.61605 55.0404 7.33605 55.1664 7.05605C55.2924 6.79005 55.5024 6.55205 55.8104 6.34205C56.1044 6.14605 56.4964 5.97805 57.0004 5.83805C57.4904 5.71205 58.1064 5.64205 58.8344 5.61405V5.48805C58.8344 5.15205 58.7364 4.90005 58.5544 4.73205C58.3724 4.57805 58.0784 4.49405 57.6864 4.49405C57.3504 4.49405 56.9864 4.56405 56.6084 4.69005C56.2304 4.81605 55.8524 4.97005 55.4744 5.15205L55.0264 3.57005C55.3624 3.38805 55.7964 3.22005 56.3144 3.05205C56.8324 2.88405 57.4064 2.80005 58.0224 2.80005C58.5824 2.80005 59.0444 2.87005 59.4364 2.99605C59.8144 3.12205 60.1224 3.30405 60.3604 3.54205C60.5844 3.79405 60.7524 4.08805 60.8504 4.43805C60.9484 4.78805 60.9904 5.19405 60.9904 5.64205L60.9764 7.57405C60.9764 7.79805 61.0044 7.93805 61.0744 7.99405C61.1304 8.05005 61.2844 8.09205 61.5084 8.10605L61.2984 9.64605C60.5844 9.74405 60.0384 9.70205 59.6744 9.53405C59.2964 9.36605 59.0304 9.10005 58.8904 8.75005H58.8484Z" fill="#303E47" style="fill:#303E47;fill:color(display-p3 0.1882 0.2431 0.2784);fill-opacity:1;"/>
<path d="M54.0653 5.08202C54.0653 5.75402 53.9533 6.37002 53.7293 6.91602C53.5053 7.46202 53.1973 7.92402 52.7773 8.31602C52.3573 8.70802 51.8253 9.00202 51.2093 9.21202C50.5933 9.42202 49.8793 9.52002 49.0813 9.52002H45.9453V0.77002H49.2353C49.9913 0.77002 50.6773 0.882019 51.2793 1.07802C51.8813 1.28802 52.3853 1.58202 52.8053 1.96002C53.2113 2.33802 53.5193 2.78602 53.7433 3.31802C53.9533 3.85002 54.0653 4.43802 54.0653 5.08202ZM51.8253 5.16602C51.8253 4.27002 51.5873 3.59802 51.1393 3.17802C50.6913 2.75802 50.0053 2.54802 49.0953 2.54802H48.1713V7.74202H49.2073C50.0193 7.74202 50.6493 7.53202 51.1253 7.11202C51.5873 6.69202 51.8253 6.04802 51.8253 5.16602Z" fill="#303E47" style="fill:#303E47;fill:color(display-p3 0.1882 0.2431 0.2784);fill-opacity:1;"/>
<path d="M42.1872 6.24405C42.1872 6.80405 42.0892 7.29405 41.9072 7.71405C41.7112 8.14805 41.4592 8.51205 41.1512 8.80605C40.8292 9.11405 40.4512 9.33805 40.0312 9.49205C39.5972 9.66005 39.1352 9.73005 38.6592 9.73005C38.1552 9.73005 37.7072 9.66005 37.2872 9.50605C36.8672 9.36605 36.5032 9.14205 36.1952 8.84805C35.8872 8.55405 35.6352 8.19005 35.4672 7.75605C35.2852 7.33605 35.2012 6.84605 35.2012 6.28605C35.2012 5.74005 35.2852 5.25005 35.4672 4.81605C35.6492 4.38205 35.9012 4.01805 36.2232 3.71005C36.5452 3.41605 36.9232 3.19205 37.3572 3.03805C37.7772 2.88405 38.2392 2.80005 38.7432 2.80005C39.2192 2.80005 39.6812 2.88405 40.1012 3.03805C40.5212 3.19205 40.8852 3.41605 41.1932 3.71005C41.5012 4.00405 41.7392 4.36805 41.9212 4.78805C42.0892 5.22205 42.1872 5.71205 42.1872 6.24405ZM40.0452 6.25805C40.0452 5.71205 39.9192 5.27805 39.6952 4.94205C39.4712 4.60605 39.1352 4.43805 38.6872 4.43805C38.2392 4.43805 37.9032 4.60605 37.6792 4.94205C37.4552 5.27805 37.3432 5.71205 37.3432 6.27205C37.3432 6.83205 37.4552 7.28005 37.6792 7.60205C37.9032 7.92405 38.2532 8.07805 38.7012 8.07805C39.1492 8.07805 39.4852 7.92405 39.7092 7.58805C39.9332 7.26605 40.0452 6.81805 40.0452 6.25805Z" fill="#303E47" style="fill:#303E47;fill:color(display-p3 0.1882 0.2431 0.2784);fill-opacity:1;"/>
<path d="M31.8911 9.52005L31.8771 5.67005C31.8771 5.27805 31.8071 5.01205 31.6391 4.85805C31.4711 4.71805 31.2471 4.63405 30.9531 4.63405C30.7151 4.63405 30.4911 4.69005 30.2951 4.78805C30.0991 4.88605 29.9171 4.99805 29.7771 5.12405V9.52005H27.6211V3.12205L29.7771 2.85605V3.92005C30.0711 3.59805 30.4071 3.33205 30.7851 3.12205C31.1491 2.91205 31.5551 2.80005 31.9751 2.80005C32.6191 2.80005 33.1371 3.01005 33.5011 3.40205C33.8651 3.79405 34.0471 4.34005 34.0471 5.04005V9.52005H31.8911Z" fill="#303E47" style="fill:#303E47;fill:color(display-p3 0.1882 0.2431 0.2784);fill-opacity:1;"/>
<path d="M22.1531 6.77605C22.1811 7.22405 22.3491 7.56005 22.6431 7.79805C22.9231 8.03605 23.3431 8.14805 23.8751 8.14805C24.2251 8.14805 24.5891 8.09205 24.9531 7.98005C25.3171 7.86805 25.6671 7.71405 26.0031 7.53205L26.2131 9.19805C25.8771 9.36605 25.4991 9.49205 25.0511 9.59005C24.6031 9.67405 24.1551 9.73005 23.6791 9.73005C23.1191 9.73005 22.6291 9.64605 22.1811 9.50605C21.7331 9.35205 21.3411 9.12805 21.0331 8.83405C20.7111 8.55405 20.4591 8.19005 20.2911 7.77005C20.1231 7.35005 20.0391 6.86005 20.0391 6.31405C20.0391 5.78205 20.1231 5.30605 20.2911 4.87205C20.4591 4.43805 20.7111 4.07405 21.0191 3.76605C21.3271 3.45805 21.7051 3.22005 22.1391 3.05205C22.5591 2.88405 23.0351 2.80005 23.5671 2.80005C24.4911 2.80005 25.1911 3.05205 25.6811 3.55605C26.1711 4.06005 26.4231 4.71805 26.4231 5.53005C26.4231 5.71205 26.4091 5.90805 26.3811 6.13205C26.3531 6.35605 26.3251 6.53805 26.2831 6.67805L22.1531 6.74805V6.77605ZM24.4211 5.65605V5.53005C24.4211 5.13805 24.3371 4.84405 24.1691 4.62005C24.0011 4.39605 23.7631 4.28405 23.4271 4.28405C23.0491 4.28405 22.7551 4.42405 22.5451 4.70405C22.3211 4.98405 22.1951 5.30605 22.1671 5.67005L24.4211 5.65605Z" fill="#303E47" style="fill:#303E47;fill:color(display-p3 0.1882 0.2431 0.2784);fill-opacity:1;"/>
<path d="M16.6973 9.52V0.266L18.8533 0V9.52H16.6973Z" fill="#303E47" style="fill:#303E47;fill:color(display-p3 0.1882 0.2431 0.2784);fill-opacity:1;"/>
<path d="M15.5133 6.24405C15.5133 6.80405 15.4153 7.29405 15.2333 7.71405C15.0373 8.14805 14.7853 8.51205 14.4773 8.80605C14.1553 9.11405 13.7773 9.33805 13.3573 9.49205C12.9233 9.66005 12.4613 9.73005 11.9853 9.73005C11.4813 9.73005 11.0333 9.66005 10.6133 9.50605C10.1933 9.36605 9.82934 9.14205 9.52134 8.84805C9.21334 8.55405 8.96134 8.19005 8.79334 7.75605C8.61134 7.33605 8.52734 6.84605 8.52734 6.28605C8.52734 5.74005 8.61134 5.25005 8.79334 4.81605C8.97534 4.38205 9.22734 4.01805 9.54934 3.71005C9.87134 3.41605 10.2493 3.19205 10.6833 3.03805C11.1033 2.88405 11.5653 2.80005 12.0693 2.80005C12.5453 2.80005 13.0073 2.88405 13.4273 3.03805C13.8473 3.19205 14.2113 3.41605 14.5193 3.71005C14.8273 4.00405 15.0653 4.36805 15.2473 4.78805C15.4153 5.22205 15.5133 5.71205 15.5133 6.24405ZM13.3713 6.25805C13.3713 5.71205 13.2453 5.27805 13.0213 4.94205C12.7973 4.60605 12.4613 4.43805 12.0133 4.43805C11.5653 4.43805 11.2293 4.60605 11.0053 4.94205C10.7813 5.27805 10.6693 5.71205 10.6693 6.27205C10.6693 6.83205 10.7813 7.28005 11.0053 7.60205C11.2293 7.92405 11.5793 8.07805 12.0273 8.07805C12.4753 8.07805 12.8113 7.92405 13.0353 7.58805C13.2593 7.26605 13.3713 6.81805 13.3713 6.25805Z" fill="#303E47" style="fill:#303E47;fill:color(display-p3 0.1882 0.2431 0.2784);fill-opacity:1;"/>
<path d="M7.88216 3.80802C7.88216 4.84402 7.54616 5.62802 6.87416 6.16002C6.20216 6.70602 5.25016 6.97202 3.99016 6.97202L3.13616 6.98602V9.52002H0.910156V0.77002H4.14416C4.76016 0.77002 5.29216 0.854019 5.75416 0.994019C6.21616 1.14802 6.60816 1.35802 6.93016 1.62402C7.23816 1.89002 7.47616 2.21202 7.64416 2.57602C7.79816 2.95402 7.88216 3.36002 7.88216 3.80802ZM5.67016 3.86402C5.67016 2.98202 5.09616 2.54802 3.97616 2.54802H3.08016V5.27802L3.97616 5.26402C4.55016 5.25002 4.97016 5.12402 5.25016 4.88602C5.53016 4.66202 5.67016 4.31202 5.67016 3.86402Z" fill="#303E47" style="fill:#303E47;fill:color(display-p3 0.1882 0.2431 0.2784);fill-opacity:1;"/>
</svg>
