<svg width="391" height="120" viewBox="0 0 391 120" fill="none" xmlns="http://www.w3.org/2000/svg">
<path d="M155.439 73.1945H191.643V85.7876L155.439 85.6986V85.7876H142.643L142.755 27.7876H155.439V73.1945Z" fill="black" style="fill:black;fill-opacity:1;"/>
<path d="M230.843 86.7876C224.314 86.7876 218.798 85.3694 214.296 82.5331C209.868 79.6967 206.491 75.9876 204.164 71.4058C201.913 66.824 200.787 61.9512 200.787 56.7876C200.787 51.624 201.913 46.7512 204.164 42.1694C206.491 37.5876 209.868 33.8785 214.296 31.0421C218.798 28.2058 224.314 26.7876 230.843 26.7876C237.297 26.7876 242.738 28.2058 247.166 31.0421C251.669 33.8785 255.046 37.5876 257.297 42.1694C259.624 46.7512 260.787 51.624 260.787 56.7876C260.787 61.9512 259.624 66.824 257.297 71.4058C255.046 75.9876 251.669 79.6967 247.166 82.5331C242.738 85.3694 237.297 86.7876 230.843 86.7876ZM230.843 76.2058C234.521 76.2058 237.598 75.2967 240.074 73.4785C242.626 71.6603 244.539 69.2603 245.815 66.2785C247.166 63.2967 247.842 60.133 247.842 56.7876C247.842 53.3694 247.166 50.2058 245.815 47.2967C244.539 44.3149 242.626 41.9149 240.074 40.0967C237.598 38.2785 234.521 37.3694 230.843 37.3694C227.166 37.3694 224.052 38.2785 221.5 40.0967C218.948 41.9149 217.035 44.3149 215.759 47.2967C214.483 50.2058 213.845 53.3694 213.845 56.7876C213.845 60.133 214.483 63.2967 215.759 66.2785C217.035 69.2603 218.948 71.6603 221.5 73.4785C224.052 75.2967 227.166 76.2058 230.843 76.2058Z" fill="black" style="fill:black;fill-opacity:1;"/>
<path d="M287.983 85.7876L265.787 27.7876H278.837L294.899 71.2329L310.626 27.7876H323.787L301.479 85.7876H287.983Z" fill="black" style="fill:black;fill-opacity:1;"/>
<path d="M356.131 26.7876C359.82 26.7876 362.883 27.3694 365.318 28.533C367.827 29.6967 369.819 31.0421 371.295 32.5694C372.771 34.0967 373.841 35.4058 374.505 36.4967H375.169V27.8785H387.787V85.6967H375.169V77.0785H374.505C373.841 78.1694 372.771 79.4785 371.295 81.0058C369.819 82.533 367.827 83.8785 365.318 85.0421C362.883 86.2058 359.82 86.7876 356.131 86.7876C351.703 86.7876 347.829 85.9512 344.508 84.2785C341.262 82.533 338.531 80.2421 336.318 77.4058C334.104 74.4967 332.444 71.2603 331.337 67.6967C330.304 64.1331 329.787 60.4967 329.787 56.7876C329.787 53.0785 330.304 49.4421 331.337 45.8785C332.444 42.3149 334.104 39.1149 336.318 36.2785C338.531 33.3694 341.262 31.0785 344.508 29.4058C347.829 27.6603 351.703 26.7876 356.131 26.7876ZM358.898 37.1512C355.282 37.1512 352.257 38.133 349.821 40.0967C347.386 41.9876 345.542 44.424 344.287 47.4058C343.106 50.3876 342.516 53.5149 342.516 56.7876C342.516 60.0603 343.106 63.1876 344.287 66.1694C345.542 69.1512 347.386 71.624 349.821 73.5876C352.257 75.4785 355.282 76.424 358.898 76.424C362.514 76.424 365.502 75.4785 367.863 73.5876C370.299 71.624 372.106 69.1512 373.287 66.1694C374.542 63.1876 375.169 60.0603 375.169 56.7876C375.169 53.5149 374.542 50.3876 373.287 47.4058C372.106 44.424 370.299 41.9876 367.863 40.0967C365.502 38.133 362.514 37.1512 358.898 37.1512Z" fill="black" style="fill:black;fill-opacity:1;"/>
<rect y="25.8467" width="45.4737" height="45.4737" rx="22.7368" transform="rotate(-15 0 25.8467)" fill="#2876C8" style="fill:#2876C8;fill:color(display-p3 0.1569 0.4627 0.7843);fill-opacity:1;"/>
<rect x="61.8828" y="61.5742" width="45.4737" height="45.4737" rx="22.7368" transform="rotate(-15 61.8828 61.5742)" fill="#ED8139" style="fill:#ED8139;fill:color(display-p3 0.9294 0.5059 0.2235);fill-opacity:1;"/>
<rect x="48.8047" y="12.7695" width="45.4737" height="45.4737" rx="6" transform="rotate(-15 48.8047 12.7695)" fill="#995DDD" style="fill:#995DDD;fill:color(display-p3 0.5985 0.3648 0.8656);fill-opacity:1;"/>
<rect x="13.0781" y="74.6514" width="45.4737" height="45.4737" rx="6" transform="rotate(-15 13.0781 74.6514)" fill="#31C377" style="fill:#31C377;fill:color(display-p3 0.1915 0.7642 0.4683);fill-opacity:1;"/>
</svg>
