<svg width="28" height="18" viewBox="0 0 28 18" fill="none" xmlns="http://www.w3.org/2000/svg">
<path d="M8 15H20V3H8V15Z" fill="#006FCF" style="fill:#006FCF;fill:color(display-p3 0.0000 0.4353 0.8118);fill-opacity:1;"/>
<path d="M12.3477 13.1013L17.0926 13.1113L17.8378 12.28L18.5883 13.1082H20.0006V11.8952L19.1161 10.9413L20.0006 9.99606V8.80834L12.3477 8.80147V13.1013Z" fill="white" style="fill:white;fill-opacity:1;"/>
<path fill-rule="evenodd" clip-rule="evenodd" d="M12.8574 12.6299V9.27467H15.7023V10.0476H13.7785V10.5722H15.6564V11.3323H13.7785V11.8477H15.7023V12.6299L12.8574 12.6299Z" fill="#006FCF" style="fill:#006FCF;fill:color(display-p3 0.0000 0.4353 0.8118);fill-opacity:1;"/>
<path d="M18.8345 9.27472L17.8698 10.3382L16.9079 9.27472H15.6895L17.2637 10.9504L15.6895 12.6299H16.8748L17.8437 11.5558L18.8227 12.6299H20.0006V12.5822L18.4599 10.9504L20.0006 9.30115V9.27472H18.8345Z" fill="#006FCF" style="fill:#006FCF;fill:color(display-p3 0.0000 0.4353 0.8118);fill-opacity:1;"/>
<path d="M18.2602 4.98535L17.8661 6.08766L17.4734 4.98535H15.1959V6.4566L14.548 4.98535H12.7032L10.8086 9.28516H19.9992V4.98535H18.2602Z" fill="white" style="fill:white;fill-opacity:1;"/>
<path fill-rule="evenodd" clip-rule="evenodd" d="M13.1811 7.38103L13.6276 6.31385L14.0737 7.38103H13.1811ZM13.0532 5.45233L11.5645 8.80469H12.5855L12.8664 8.13341H14.3882L14.6689 8.80469H15.7154L14.2328 5.45233H13.0532Z" fill="#006FCF" style="fill:#006FCF;fill:color(display-p3 0.0000 0.4353 0.8118);fill-opacity:1;"/>
<path d="M15.7012 8.80369L16.6039 8.8037V6.50097L17.4604 8.8037H18.2717L19.1108 6.50879V8.81152L19.9996 8.8037V5.45136H18.6183L17.875 7.51725L17.1365 5.4563L15.7012 5.45134V8.80369Z" fill="#006FCF" style="fill:#006FCF;fill:color(display-p3 0.0000 0.4353 0.8118);fill-opacity:1;"/>
</svg>
