<svg width="28" height="18" viewBox="0 0 28 18" fill="none" xmlns="http://www.w3.org/2000/svg">
<path d="M18.0447 9.58665L18.9994 7.22688H19.7357L18.2224 10.8281H17.8532L16.3667 7.22688H17.1169L18.0447 9.58665Z" fill="black" style="fill:black;fill-opacity:1;"/>
<path d="M11.6621 7.14551C11.9618 7.14551 12.2079 7.21398 12.5075 7.36382V8.16861C12.2207 7.88183 11.9756 7.77266 11.6482 7.77266C11.0071 7.77266 10.502 8.30555 10.502 8.97339C10.502 9.68191 10.9793 10.187 11.675 10.187C11.9885 10.187 12.2337 10.0779 12.5065 9.80496V10.6097C12.193 10.7596 11.9469 10.8142 11.6472 10.8142C10.5973 10.8142 9.79252 10.0233 9.79252 8.98629C9.79252 7.96319 10.6251 7.14452 11.6621 7.14551Z" fill="black" style="fill:black;fill-opacity:1;"/>
<path d="M8.41517 7.15842C8.81111 7.15842 9.15247 7.29536 9.45216 7.55436L9.09789 8.03167C8.90637 7.82626 8.74263 7.74488 8.53821 7.74488C8.25143 7.74488 8.03312 7.90862 8.03312 8.12693C8.03312 8.31845 8.15617 8.41371 8.56501 8.56356C9.343 8.85034 9.57421 9.10934 9.57321 9.65413C9.57321 10.3359 9.06911 10.8132 8.35959 10.8132C7.8416 10.8132 7.45955 10.6088 7.14597 10.1453L7.5826 9.73649C7.74633 10.0362 8.00533 10.1999 8.3328 10.1999C8.63248 10.1999 8.86469 9.9955 8.86469 9.70871C8.86469 9.55887 8.79622 9.42193 8.66027 9.34056C8.5918 9.29987 8.45585 9.2314 8.18296 9.13613C7.54191 8.90393 7.3236 8.65882 7.3236 8.16762C7.3236 7.59504 7.78802 7.15842 8.41517 7.15842Z" fill="black" style="fill:black;fill-opacity:1;"/>
<path fill-rule="evenodd" clip-rule="evenodd" d="M23.4589 7.22589C24.2498 7.22589 24.7003 7.60794 24.7003 8.26288C24.7003 8.79576 24.4145 9.15003 23.8955 9.25919L25 10.7328H24.1545L23.2138 9.32765H23.1185V10.7308H22.4368V7.22589H23.4589ZM23.1185 7.77266V8.83645H23.323C23.7596 8.83645 23.9918 8.64493 23.9779 8.29066C23.9779 7.9503 23.7457 7.77266 23.323 7.77266H23.1185Z" fill="black" style="fill:black;fill-opacity:1;"/>
<path fill-rule="evenodd" clip-rule="evenodd" d="M4.0092 7.22688C5.11466 7.22688 5.89166 7.9493 5.89166 8.9724C5.89166 9.49139 5.64655 9.99549 5.25061 10.323C4.90925 10.6088 4.5272 10.7318 3.99531 10.7318H3V7.22688H4.0092ZM3.68272 10.1324H3.86035C4.30988 10.1324 4.58277 10.0501 4.80108 9.85954C5.04619 9.65412 5.18214 9.31376 5.18313 8.97339C5.18313 8.64592 5.04619 8.31845 4.80108 8.10013C4.56987 7.89472 4.29698 7.81335 3.86035 7.81335H3.68272V10.1324Z" fill="black" style="fill:black;fill-opacity:1;"/>
<path d="M6.88697 10.7318H6.20523V7.22688H6.88697V10.7318Z" fill="black" style="fill:black;fill-opacity:1;"/>
<path d="M21.9863 7.81335H20.732V8.59035H21.9456V9.19071H20.732V10.1453H21.9863V10.7318H20.0493V7.22688H21.9863V7.81335Z" fill="black" style="fill:black;fill-opacity:1;"/>
<path d="M14.6613 10.8539C15.6856 10.8539 16.516 10.0235 16.516 8.9992C16.516 7.9749 15.6856 7.14453 14.6613 7.14453C13.637 7.14453 12.8066 7.9749 12.8066 8.9992C12.8066 10.0235 13.637 10.8539 14.6613 10.8539Z" fill="url(#paint0_linear_862_644)"/>
<path opacity="0.65" d="M14.6613 10.8549C15.6854 10.8549 16.516 10.0243 16.516 9.00019C16.516 7.97611 15.6864 7.14453 14.6613 7.14453C13.6362 7.14453 12.8066 7.97511 12.8066 8.9992C12.8066 10.0233 13.6372 10.8549 14.6613 10.8549Z" fill="url(#paint1_radial_862_644)"/>
<defs>
<linearGradient id="paint0_linear_862_644" x1="15.611" y1="10.4861" x2="14.3267" y2="8.47539" gradientUnits="userSpaceOnUse">
<stop stop-color="#F9A020" style="stop-color:#F9A020;stop-color:color(display-p3 0.9765 0.6275 0.1255);stop-opacity:1;"/>
<stop offset="0.2041" stop-color="#F99D20" style="stop-color:#F99D20;stop-color:color(display-p3 0.9765 0.6157 0.1255);stop-opacity:1;"/>
<stop offset="0.4348" stop-color="#F79320" style="stop-color:#F79320;stop-color:color(display-p3 0.9686 0.5765 0.1255);stop-opacity:1;"/>
<stop offset="0.6196" stop-color="#F68820" style="stop-color:#F68820;stop-color:color(display-p3 0.9647 0.5333 0.1255);stop-opacity:1;"/>
<stop offset="0.7969" stop-color="#F57E20" style="stop-color:#F57E20;stop-color:color(display-p3 0.9608 0.4941 0.1255);stop-opacity:1;"/>
<stop offset="1" stop-color="#F47521" style="stop-color:#F47521;stop-color:color(display-p3 0.9569 0.4588 0.1294);stop-opacity:1;"/>
</linearGradient>
<radialGradient id="paint1_radial_862_644" cx="0" cy="0" r="1" gradientUnits="userSpaceOnUse" gradientTransform="translate(15.4003 10.3452) rotate(-117.808) scale(3.26617 2.53333)">
<stop stop-color="#FF932C" style="stop-color:#FF932C;stop-color:color(display-p3 1.0000 0.5765 0.1725);stop-opacity:1;"/>
<stop offset="0.5677" stop-color="#E86D20" style="stop-color:#E86D20;stop-color:color(display-p3 0.9098 0.4275 0.1255);stop-opacity:1;"/>
<stop offset="0.8604" stop-color="#E85718" stop-opacity="0.8653" style="stop-color:#E85718;stop-color:color(display-p3 0.9098 0.3412 0.0941);stop-opacity:0.8653;"/>
<stop offset="1" stop-color="#640000" style="stop-color:#640000;stop-color:color(display-p3 0.3922 0.0000 0.0000);stop-opacity:1;"/>
</radialGradient>
</defs>
</svg>
