<svg width="28" height="18" viewBox="0 0 28 18" fill="none" xmlns="http://www.w3.org/2000/svg">
<path d="M17.2821 4C20.0767 4 22.342 6.23859 22.342 8.99997C22.3419 11.7613 20.0766 14 17.2821 14C16.0293 13.9999 14.8834 13.5489 13.9998 12.8036C13.1161 13.5488 11.9707 13.9999 10.718 14C7.92359 14 5.65828 11.7613 5.6582 8.99997C5.6582 6.23859 7.92354 4 10.718 4C11.9707 4.00004 13.1162 4.45071 13.9998 5.1958C14.8834 4.45053 16.0293 4.00004 17.2821 4Z" fill="#D82F28" style="fill:#D82F28;fill:color(display-p3 0.8471 0.1843 0.1569);fill-opacity:1;"/>
<path d="M17.2823 4C20.0769 4 22.3428 6.23859 22.3428 8.99997C22.3427 11.7613 20.0768 14 17.2823 14C16.0295 13.9999 14.8837 13.5489 14 12.8036C15.0875 11.8865 15.7781 10.5234 15.7781 8.99997C15.7781 7.47644 15.0876 6.11288 14 5.1958C14.8837 4.45053 16.0295 4.00006 17.2823 4Z" fill="#48A1E0" style="fill:#48A1E0;fill:color(display-p3 0.2824 0.6314 0.8784);fill-opacity:1;"/>
<path d="M13.9982 5.19531C15.0858 6.1124 15.7763 7.47597 15.7763 8.99953C15.7763 10.5229 15.0857 11.8861 13.9982 12.8031C12.911 11.8861 12.2208 10.5228 12.2207 8.99953C12.2207 7.47614 12.9108 6.11239 13.9982 5.19531Z" fill="#7476CA" style="fill:#7476CA;fill:color(display-p3 0.4549 0.4627 0.7922);fill-opacity:1;"/>
</svg>
