<svg width="28" height="18" viewBox="0 0 28 18" fill="none" xmlns="http://www.w3.org/2000/svg">
<path d="M23.7587 6.53443L24.9999 8.99904L22.3906 11.4648L23.7587 6.53443Z" fill="#008C44" style="fill:#008C44;fill:color(display-p3 0.0000 0.5490 0.2667);fill-opacity:1;"/>
<path d="M22.8994 6.53443L24.1388 8.99904L21.5312 11.4648L22.8994 6.53443Z" fill="#F47920" style="fill:#F47920;fill:color(display-p3 0.9569 0.4745 0.1255);fill-opacity:1;"/>
<path d="M20.0573 9.27412L21.129 7.27795H22.2705L20.376 10.5521C20.161 10.9181 20.0047 11.1695 19.9056 11.3067C19.8077 11.4422 19.7148 11.5476 19.6246 11.6189C19.5077 11.7175 19.3771 11.7874 19.2362 11.8281C19.095 11.8697 18.88 11.8905 18.591 11.8905C18.5078 11.8905 18.4121 11.8888 18.3085 11.8834C18.2058 11.8794 18.0961 11.8733 17.9841 11.8644L18.2532 10.8906H18.6002C18.7162 10.8906 18.8074 10.8677 18.872 10.826C18.9376 10.7827 18.9822 10.7096 19.0079 10.6113C19.0208 10.568 19.0286 10.5224 19.0341 10.4706C19.0375 10.4157 19.0375 10.3577 19.0341 10.2905L18.8489 7.27795H20.0764L20.0573 9.27412Z" fill="#1B3281" style="fill:#1B3281;fill:color(display-p3 0.1059 0.1961 0.5059);fill-opacity:1;"/>
<path fill-rule="evenodd" clip-rule="evenodd" d="M17.2104 7.16194C17.4609 7.16194 17.6853 7.18537 17.8837 7.23625C18.0824 7.28498 18.2276 7.35446 18.3218 7.43852C18.4378 7.54342 18.5064 7.66302 18.5259 7.79525C18.5485 7.92717 18.5238 8.11627 18.4546 8.36368L17.946 10.198C17.9297 10.2581 17.9266 10.3117 17.9354 10.3604C17.946 10.4068 17.9664 10.4466 18.0022 10.475L17.9749 10.5679H16.7572L16.7695 10.2555C16.574 10.4019 16.3759 10.5125 16.1768 10.5817C15.9786 10.6521 15.7674 10.6879 15.5413 10.6879C15.1978 10.6879 14.9583 10.5945 14.8198 10.4139C14.683 10.2329 14.6605 9.97302 14.7538 9.64154C14.8432 9.31438 15.0021 9.07356 15.2314 8.9196C15.4594 8.76379 15.8402 8.65229 16.3743 8.58098C16.4421 8.56996 16.5328 8.56107 16.6465 8.54735C17.0414 8.50164 17.2631 8.3964 17.3108 8.22472C17.3357 8.13073 17.3206 8.06137 17.2622 8.01881C17.2059 7.97462 17.1007 7.95289 16.9488 7.95289C16.8227 7.95289 16.7212 7.97902 16.638 8.03337C16.5549 8.08826 16.493 8.1685 16.4509 8.2813H15.2686C15.3753 7.91092 15.5935 7.63103 15.921 7.4439C16.2473 7.25353 16.6775 7.16194 17.2104 7.16194ZM17.052 9.09883C16.9232 9.15059 16.7558 9.2002 16.5478 9.25465C16.2212 9.34227 16.0374 9.4592 15.9977 9.60387C15.9701 9.69688 15.9812 9.76854 16.0267 9.82299C16.0715 9.87474 16.1495 9.90086 16.2593 9.90086C16.4606 9.90086 16.6222 9.84995 16.7426 9.74948C16.8634 9.6477 16.9538 9.48788 17.017 9.26747C17.028 9.22061 17.0377 9.18691 17.044 9.16175L17.052 9.09883Z" fill="#1B3281" style="fill:#1B3281;fill:color(display-p3 0.1059 0.1961 0.5059);fill-opacity:1;"/>
<path d="M8.70622 8.97721C8.63729 9.22591 8.62087 9.40075 8.65447 9.49593C8.68948 9.59196 8.78293 9.64153 8.9346 9.64154C9.08738 9.64154 9.21587 9.58621 9.32197 9.4733C9.42957 9.36136 9.51267 9.19443 9.57512 8.9723L10.043 7.27787H11.254L10.3417 10.568H9.23302L9.36929 10.086C9.17416 10.2776 8.97446 10.4232 8.77317 10.5162C8.57352 10.6108 8.36284 10.6574 8.14104 10.6574C7.95769 10.6574 7.80026 10.6241 7.67352 10.5581C7.54527 10.4923 7.44975 10.3922 7.38547 10.2603C7.32843 10.1448 7.30358 10.0022 7.3133 9.83178C7.32357 9.66409 7.38278 9.38125 7.49254 8.9852L7.96537 7.27787H9.17802L8.70622 8.97721Z" fill="#1B3281" style="fill:#1B3281;fill:color(display-p3 0.1059 0.1961 0.5059);fill-opacity:1;"/>
<path fill-rule="evenodd" clip-rule="evenodd" d="M6.2161 6.10938C6.83442 6.10938 7.2475 6.20726 7.45764 6.40898C7.66627 6.60908 7.70646 6.93576 7.58069 7.39483C7.50463 7.66525 7.38902 7.89225 7.23021 8.07159C7.07268 8.25127 6.86485 8.39333 6.609 8.49781C6.82605 8.54999 6.96412 8.65362 7.02604 8.80897C7.08763 8.96433 7.08055 9.19093 7.00578 9.48794L6.85527 10.1107L6.85479 10.1276C6.81137 10.3019 6.82424 10.3953 6.89499 10.4029L6.84941 10.568H5.51093C5.51547 10.4631 5.52384 10.3693 5.5327 10.2905C5.54242 10.2099 5.55436 10.1474 5.56625 10.1046L5.69104 9.65934C5.75392 9.42781 5.75785 9.26625 5.69951 9.17322C5.64063 9.07771 5.50877 9.0307 5.30067 9.0307H4.73819L4.30928 10.568H3L4.23758 6.10938H6.2161ZM5.01658 8.02601H5.61903C5.83014 8.02601 5.98592 7.99584 6.08197 7.9335C6.17845 7.87062 6.25012 7.76443 6.29215 7.61079C6.33569 7.45457 6.32499 7.34564 6.26255 7.28373C6.20021 7.22085 6.05096 7.19027 5.81639 7.19027H5.24852L5.01658 8.02601Z" fill="#1B3281" style="fill:#1B3281;fill:color(display-p3 0.1059 0.1961 0.5059);fill-opacity:1;"/>
<path fill-rule="evenodd" clip-rule="evenodd" d="M13.7509 6.10938C14.1261 6.10938 14.4166 6.1315 14.6237 6.18012C14.8304 6.22669 14.9925 6.30234 15.1129 6.40898C15.2639 6.54846 15.3564 6.72114 15.3944 6.92826C15.4302 7.13538 15.409 7.37664 15.3306 7.65993C15.1921 8.15834 14.9494 8.54027 14.6034 8.80715C14.2564 9.07056 13.827 9.2029 13.3145 9.2029H12.5187L12.1407 10.568H10.814L12.0503 6.10938H13.7509ZM12.82 8.11409H13.2477C13.5241 8.11408 13.7185 8.07989 13.8324 8.01398C13.9426 7.94721 14.0209 7.82859 14.0687 7.65993C14.1164 7.48901 14.1041 7.36949 14.032 7.30272C13.9625 7.23627 13.7849 7.2027 13.5009 7.2027H13.0741L12.82 8.11409Z" fill="#1B3281" style="fill:#1B3281;fill:color(display-p3 0.1059 0.1961 0.5059);fill-opacity:1;"/>
</svg>
