<svg width="28" height="18" viewBox="0 0 28 18" fill="none" xmlns="http://www.w3.org/2000/svg">
<path d="M8.16489 3H12.9528C13.6212 3 14.0369 3.5448 13.881 4.21541L11.6518 13.7865C11.4945 14.4547 10.8254 15 10.1565 15H5.36905C4.70162 15 4.285 14.4547 4.44091 13.7865L6.67098 4.21541C6.82689 3.5448 7.49572 3 8.16489 3Z" fill="#E21836" style="fill:#E21836;fill:color(display-p3 0.8863 0.0941 0.2118);fill-opacity:1;"/>
<path d="M12.5552 3H18.0612C18.7295 3 18.4282 3.5448 18.271 4.21541L16.0422 13.7865C15.8858 14.4547 15.9346 15 15.2649 15H9.7589C9.08926 15 8.67485 14.4547 8.83217 13.7865L11.0608 4.21541C11.2191 3.5448 11.8865 3 12.5552 3Z" fill="#00447C" style="fill:#00447C;fill:color(display-p3 0.0000 0.2667 0.4863);fill-opacity:1;"/>
<path d="M17.8441 3H22.632C23.3013 3 23.717 3.5448 23.5598 4.21541L21.331 13.7865C21.1737 14.4547 20.5041 15 19.8349 15H15.0491C14.3795 15 13.9642 14.4547 14.121 13.7865L16.3501 4.21541C16.5061 3.5448 17.1744 3 17.8441 3Z" fill="#007B84" style="fill:#007B84;fill:color(display-p3 0.0000 0.4824 0.5176);fill-opacity:1;"/>
<path d="M9.41631 6.06768C8.92395 6.0727 8.77853 6.06768 8.73209 6.05671C8.71423 6.14156 8.38198 7.67429 8.38105 7.67558C8.30951 7.98567 8.25746 8.20672 8.08065 8.34945C7.98029 8.43243 7.86312 8.47247 7.72728 8.47247C7.50893 8.47247 7.38172 8.36404 7.36036 8.1584L7.35628 8.08779C7.35628 8.08779 7.4228 7.67243 7.4228 7.67009C7.4228 7.67009 7.77151 6.27332 7.83394 6.08869C7.83721 6.07818 7.83815 6.0727 7.83896 6.06768C7.16022 6.07363 7.0399 6.06768 7.03161 6.05671C7.02706 6.07177 7.01026 6.15836 7.01026 6.15836L6.6542 7.73265L6.62362 7.86616L6.56445 8.30289C6.56445 8.43243 6.58989 8.53817 6.64054 8.62757C6.80276 8.91106 7.26549 8.95354 7.52725 8.95354C7.86452 8.95354 8.1809 8.88188 8.3947 8.75105C8.76581 8.53175 8.86291 8.18898 8.9495 7.88437L8.98965 7.7281C8.98965 7.7281 9.34886 6.27741 9.4099 6.08869C9.41223 6.07818 9.41316 6.0727 9.41631 6.06768ZM10.6385 7.23797C10.5519 7.23797 10.3937 7.25897 10.2515 7.32865C10.1999 7.35514 10.1512 7.38572 10.0997 7.41618L10.1461 7.24847L10.1207 7.22023C9.81925 7.28127 9.7518 7.28944 9.47335 7.32865L9.45001 7.34417C9.41768 7.61225 9.38897 7.81381 9.26912 8.34075C9.22349 8.53495 9.17611 8.73102 9.12861 8.92476L9.14144 8.94938C9.42678 8.93433 9.51338 8.93433 9.76137 8.93841L9.78144 8.91659C9.81295 8.75518 9.81704 8.71737 9.88682 8.39047C9.91962 8.23548 9.98801 7.89492 10.0217 7.77366C10.0837 7.74495 10.1449 7.71671 10.2032 7.71671C10.3422 7.71671 10.3253 7.83797 10.3199 7.88628C10.314 7.9674 10.2633 8.23233 10.2114 8.45979L10.1767 8.60661C10.1526 8.71503 10.1261 8.82042 10.1019 8.92791L10.1124 8.94938C10.3937 8.93433 10.4794 8.93433 10.7196 8.93841L10.7479 8.91659C10.7913 8.6645 10.804 8.59704 10.881 8.22999L10.9198 8.06135C10.995 7.73129 11.0328 7.56393 10.9759 7.42762C10.9157 7.27485 10.7712 7.23797 10.6385 7.23797ZM12.0038 7.58353C11.8543 7.61224 11.759 7.63138 11.6642 7.64375C11.5703 7.65881 11.4787 7.67246 11.3342 7.69254L11.3228 7.70292L11.3123 7.71121C11.2972 7.81881 11.2867 7.91183 11.2667 8.02119C11.2498 8.13428 11.2238 8.26277 11.1814 8.44741C11.1486 8.58874 11.1317 8.63799 11.113 8.68771C11.0948 8.73743 11.0748 8.78575 11.0379 8.92475L11.0465 8.93759L11.0538 8.94937C11.1888 8.94295 11.2771 8.9384 11.3679 8.93759C11.4586 8.93432 11.5525 8.93759 11.698 8.9384L11.7107 8.92802L11.7243 8.91658C11.7453 8.79123 11.7485 8.7575 11.7613 8.69635C11.774 8.63076 11.796 8.53996 11.8498 8.29744C11.8752 8.18353 11.9036 8.06997 11.93 7.95373C11.9574 7.83795 11.9861 7.72393 12.0134 7.61002L12.0093 7.59625L12.0038 7.58353ZM12.007 7.1176C11.8712 7.03743 11.6328 7.06287 11.4723 7.17362C11.3123 7.28216 11.2941 7.43622 11.4295 7.51745C11.563 7.59541 11.8023 7.57219 11.9614 7.4605C12.121 7.34962 12.141 7.19697 12.007 7.1176ZM12.8285 8.9745C13.1034 8.9745 13.3851 8.89876 13.5971 8.67398C13.7603 8.49168 13.8351 8.22044 13.861 8.10875C13.9454 7.73855 13.8797 7.56571 13.7972 7.46044C13.6718 7.29996 13.4503 7.24849 13.2206 7.24849C13.0824 7.24849 12.7533 7.26215 12.4962 7.49918C12.3116 7.67016 12.2262 7.90218 12.1748 8.12463C12.1228 8.35127 12.0631 8.75929 12.4383 8.91113C12.5541 8.96085 12.7209 8.9745 12.8285 8.9745ZM12.8071 8.14155C12.8704 7.86121 12.9452 7.62593 13.1362 7.62593C13.2858 7.62593 13.2966 7.80099 13.2301 8.08226C13.2182 8.1447 13.1636 8.37683 13.0897 8.47569C13.0381 8.54863 12.9771 8.59286 12.9097 8.59286C12.8896 8.59286 12.7702 8.59286 12.7683 8.41558C12.7674 8.32805 12.7852 8.23865 12.8071 8.14155ZM14.548 8.93845L14.5695 8.91662C14.6 8.75522 14.605 8.71729 14.6724 8.3905C14.7062 8.23551 14.776 7.89496 14.8088 7.77369C14.8708 7.74487 14.9309 7.71662 14.9912 7.71662C15.1292 7.71662 15.1124 7.83788 15.1069 7.8862C15.1019 7.96743 15.0513 8.23224 14.9984 8.45971L14.9656 8.60653C14.9405 8.71507 14.9132 8.82034 14.889 8.92795L14.8996 8.94942C15.1817 8.93436 15.2642 8.93436 15.5058 8.93845L15.535 8.91662C15.5774 8.66442 15.5888 8.59696 15.6682 8.23003L15.706 8.06127C15.7816 7.73121 15.8199 7.56397 15.7639 7.42765C15.7019 7.27488 15.5565 7.238 15.4256 7.238C15.3389 7.238 15.1799 7.25889 15.0385 7.32868C14.988 7.35518 14.9374 7.38564 14.8876 7.41622L14.9309 7.24851L14.9077 7.22015C14.6064 7.2813 14.5375 7.28947 14.2594 7.32868L14.2381 7.34421C14.2044 7.61229 14.1769 7.81373 14.0571 8.34078C14.0114 8.53499 13.9641 8.73106 13.9167 8.92479L13.9294 8.94942C14.2152 8.93436 14.3005 8.93436 14.548 8.93845ZM16.6213 8.94936C16.6391 8.86276 16.7444 8.34948 16.7454 8.34948C16.7454 8.34948 16.8351 7.97286 16.8406 7.9592C16.8406 7.9592 16.8688 7.91999 16.8971 7.90447H16.9386C17.3306 7.90447 17.7733 7.90447 18.1203 7.64923C18.3563 7.47416 18.5177 7.21565 18.5897 6.90147C18.6084 6.82444 18.6222 6.73283 18.6222 6.64121C18.6222 6.52088 18.598 6.40184 18.5282 6.30882C18.3513 6.06128 17.999 6.05673 17.5923 6.05487C17.591 6.05487 17.3918 6.05673 17.3918 6.05673C16.8712 6.06315 16.6624 6.06129 16.5766 6.05078C16.5694 6.08871 16.5557 6.15617 16.5557 6.15617C16.5557 6.15617 16.3692 7.02051 16.3692 7.02192C16.3692 7.02192 15.923 8.85961 15.902 8.94621C16.3565 8.94072 16.5429 8.94072 16.6213 8.94936ZM16.9669 7.41394C16.9669 7.41394 17.1652 6.55135 17.1642 6.55461L17.1706 6.51038L17.1734 6.47665L17.2527 6.48482C17.2527 6.48482 17.6616 6.51995 17.6712 6.52088C17.8326 6.58332 17.8991 6.74426 17.8527 6.95434C17.8103 7.14633 17.6858 7.30774 17.5258 7.3857C17.394 7.45175 17.2326 7.45724 17.0663 7.45724H16.9587L16.9669 7.41394ZM18.2014 8.15753C18.149 8.38091 18.0888 8.78892 18.4621 8.93434C18.5812 8.98499 18.6878 9.00005 18.7962 8.99456C18.9107 8.98838 19.0168 8.93096 19.1151 8.84833C19.1062 8.88229 19.0973 8.91625 19.0885 8.95033L19.1054 8.97215C19.3739 8.96083 19.4572 8.96083 19.7482 8.96305L19.7746 8.94298C19.817 8.69322 19.8571 8.4507 19.9675 7.97289C20.0213 7.74403 20.0749 7.51738 20.1301 7.28945L20.1215 7.26435C19.8211 7.32002 19.7408 7.33193 19.4519 7.37289L19.4299 7.39075C19.427 7.41398 19.424 7.43627 19.4212 7.45856C19.3763 7.38597 19.3111 7.32399 19.2106 7.28536C19.0822 7.23483 18.7804 7.29995 18.5209 7.53617C18.3386 7.70481 18.2511 7.9359 18.2014 8.15753ZM18.8323 8.17118C18.8966 7.89587 18.9705 7.66292 19.1619 7.66292C19.2829 7.66292 19.3466 7.77461 19.3337 7.96507C19.3234 8.01257 19.3123 8.06264 19.2991 8.11925C19.28 8.20106 19.2592 8.28217 19.239 8.3634C19.2185 8.41895 19.1945 8.47136 19.1683 8.50625C19.119 8.57604 19.0019 8.61934 18.9344 8.61934C18.9153 8.61934 18.7972 8.61934 18.7931 8.44521C18.7922 8.3585 18.81 8.26922 18.8323 8.17118ZM22.1269 7.26213L22.1036 7.23563C21.8064 7.29585 21.7526 7.30542 21.4795 7.3423L21.4595 7.36238C21.4585 7.36565 21.4577 7.37066 21.4563 7.37522L21.4554 7.37066C21.2521 7.83972 21.258 7.73853 21.0925 8.1078C21.0916 8.09099 21.0916 8.08049 21.0907 8.06263L21.0492 7.26213L21.0232 7.23563C20.7119 7.29585 20.7045 7.30542 20.4169 7.3423L20.3945 7.36238C20.3914 7.37195 20.3914 7.38245 20.3895 7.39389L20.3914 7.39797C20.4273 7.58167 20.4187 7.54071 20.4548 7.83061C20.4716 7.97288 20.494 8.11597 20.5108 8.25648C20.5391 8.49165 20.555 8.60743 20.5897 8.96631C20.3955 9.28679 20.3495 9.40805 20.1625 9.68932L20.1638 9.69212L20.0322 9.90033C20.0171 9.92227 20.0035 9.93732 19.9843 9.94374C19.9633 9.95413 19.936 9.956 19.8981 9.956H19.8251L19.7167 10.3166L20.0887 10.323C20.307 10.3221 20.4443 10.22 20.5181 10.0827L20.752 9.68197H20.7483L20.7729 9.65372C20.9302 9.31503 22.1269 7.26213 22.1269 7.26213ZM18.2014 11.9985H18.0436L18.6276 10.0668H18.8213L18.8828 9.86782L18.8888 10.0891C18.8815 10.2259 18.9891 10.3471 19.2718 10.3271H19.5987L19.7112 9.95512H19.5882C19.5174 9.95512 19.4847 9.93727 19.4887 9.89899L19.4828 9.67385H18.8775V9.67502C18.6817 9.67911 18.0973 9.69381 17.979 9.72532C17.8358 9.7622 17.6849 9.87074 17.6849 9.87074L17.7442 9.67152H17.1779L17.0599 10.0668L16.4681 12.028H16.3533L16.2407 12.3973H17.3685L17.3307 12.5204H17.8864L17.9233 12.3973H18.0792L18.2014 11.9985ZM17.7387 10.4593C17.648 10.4844 17.4792 10.5605 17.4792 10.5605L17.6293 10.0668H18.0792L17.9707 10.4265C17.9707 10.4265 17.8317 10.4347 17.7387 10.4593ZM17.7473 11.1646C17.7473 11.1646 17.606 11.1823 17.513 11.2033C17.4214 11.2311 17.2496 11.3186 17.2496 11.3186L17.4045 10.8049H17.8568L17.7473 11.1646ZM17.4952 12.003H17.0439L17.1748 11.5694H17.6246L17.4952 12.003ZM18.582 10.8049H19.2325L19.1391 11.1076H18.4799L18.381 11.4386H18.9577L18.521 12.0535C18.4904 12.0987 18.463 12.1147 18.4325 12.1274C18.402 12.1429 18.3618 12.1612 18.3154 12.1612H18.1554L18.0454 12.5237H18.4639C18.6815 12.5237 18.81 12.4247 18.9048 12.2948L19.2043 11.8849L19.2686 12.3011C19.2822 12.379 19.3383 12.4247 19.3762 12.4424C19.4181 12.4634 19.4614 12.4995 19.5225 12.5049C19.5881 12.5077 19.6355 12.5099 19.667 12.5099H19.8726L19.9961 12.1042H19.915C19.8684 12.1042 19.7883 12.0964 19.7746 12.0818C19.761 12.0641 19.761 12.0367 19.7536 11.9952L19.6884 11.5781H19.4212L19.5384 11.4386H20.1963L20.2974 11.1076H19.6884L19.7833 10.8049H20.3905L20.5031 10.4315H18.6928L18.582 10.8049ZM13.0879 12.0873L13.2397 11.5822H13.8637L13.9777 11.2065H13.3531L13.4485 10.8956H14.0588L14.1719 10.5318H12.6448L12.534 10.8956H12.881L12.7884 11.2065H12.4405L12.3252 11.5886H12.6721L12.4697 12.2569C12.4424 12.3454 12.4825 12.3791 12.508 12.4202C12.534 12.4602 12.5604 12.4867 12.6197 12.5017C12.6808 12.5154 12.7227 12.5236 12.7797 12.5236H13.4832L13.6085 12.1074L13.2967 12.1502C13.2364 12.1502 13.0697 12.143 13.0879 12.0873ZM13.1595 9.66924L13.0013 9.95506C12.9675 10.0175 12.937 10.0563 12.9096 10.0741C12.8854 10.0892 12.8376 10.0955 12.7683 10.0955H12.6858L12.5755 10.4611H12.8495C12.9813 10.4611 13.0824 10.4128 13.1307 10.3886C13.1827 10.3609 13.1963 10.3767 13.2365 10.338L13.329 10.2578H14.1847L14.2982 9.8771H13.6719L13.7812 9.66924H13.1595ZM14.4227 12.0947C14.4081 12.0736 14.4186 12.0366 14.4409 11.9596L14.6748 11.1855H15.5067C15.628 11.1837 15.7155 11.1823 15.7725 11.1783C15.8336 11.1718 15.9001 11.15 15.9726 11.1108C16.0474 11.0697 16.0857 11.0264 16.118 10.9767C16.1541 10.9271 16.212 10.8186 16.2617 10.6512L16.5557 9.67154L15.6923 9.67656C15.6923 9.67656 15.4265 9.71578 15.3094 9.75908C15.1913 9.80739 15.0225 9.94231 15.0225 9.94231L15.1005 9.67376H14.5672L13.8205 12.1502C13.794 12.2464 13.7763 12.3162 13.7722 12.3581C13.7708 12.4032 13.8291 12.4479 13.867 12.4817C13.9117 12.5154 13.9777 12.5099 14.0411 12.5154C14.1077 12.5204 14.2025 12.5236 14.3333 12.5236H14.7432L14.869 12.0987L14.5021 12.1334C14.4628 12.1334 14.4345 12.1124 14.4227 12.0947ZM14.8257 10.6626H15.6995L15.644 10.8368C15.6362 10.8408 15.6175 10.8281 15.5286 10.8386H14.7719L14.8257 10.6626ZM15.0007 10.0786H15.8819L15.8186 10.2883C15.8186 10.2883 15.4032 10.2843 15.3367 10.2965C15.044 10.3472 14.873 10.5036 14.873 10.5036L15.0007 10.0786ZM15.6635 11.4199C15.6563 11.4459 15.6449 11.4618 15.6289 11.4737C15.6111 11.4851 15.5824 11.4892 15.5396 11.4892H15.4151L15.4224 11.2771H14.9045L14.8835 12.3139C14.8827 12.3887 14.8899 12.432 14.9447 12.4666C14.9994 12.5099 15.168 12.5154 15.395 12.5154H15.7196L15.8367 12.1274L15.5542 12.1429L15.4602 12.1484C15.4474 12.1429 15.4352 12.1379 15.4215 12.1242C15.4096 12.1124 15.3895 12.1197 15.3928 12.0449L15.395 11.7791L15.6913 11.7669C15.8513 11.7669 15.9197 11.7148 15.9781 11.6652C16.0337 11.6177 16.0519 11.5631 16.0729 11.4892L16.1227 11.2539H15.7155L15.6635 11.4199Z" fill="#FEFEFE" style="fill:#FEFEFE;fill:color(display-p3 0.9961 0.9961 0.9961);fill-opacity:1;"/>
</svg>
