<svg width="28" height="18" viewBox="0 0 28 18" fill="none" xmlns="http://www.w3.org/2000/svg">
<path fill-rule="evenodd" clip-rule="evenodd" d="M8.75013 12.4463H6.93275L5.56993 7.01588C5.50524 6.76607 5.3679 6.54524 5.16587 6.44116C4.66168 6.17959 4.10609 5.97142 3.5 5.86644V5.65737H6.42767C6.83173 5.65737 7.13478 5.97142 7.18529 6.33617L7.89239 10.2533L9.70888 5.65737H11.4758L8.75013 12.4463ZM12.4859 12.4463H10.7695L12.1829 5.65737H13.8992L12.4859 12.4463ZM16.1208 7.53731C16.1713 7.17166 16.4744 6.96259 16.8279 6.96259C17.3835 6.9101 17.9887 7.01509 18.4938 7.27575L18.7968 5.81406C18.2918 5.60499 17.7362 5.5 17.232 5.5C15.5661 5.5 14.354 6.44037 14.354 7.74548C14.354 8.73834 15.2126 9.25963 15.8186 9.57371C16.4744 9.88686 16.7269 10.0959 16.6764 10.4091C16.6764 10.8788 16.1713 11.0879 15.6671 11.0879C15.0611 11.0879 14.4549 10.9313 13.9002 10.6698L13.5972 12.1324C14.2033 12.393 14.859 12.498 15.4651 12.498C17.333 12.5496 18.4938 11.6101 18.4938 10.2C18.4938 8.42426 16.1208 8.32019 16.1208 7.53731ZM24.5 12.4463L23.1372 5.65737H21.6733C21.3703 5.65737 21.0672 5.86644 20.9662 6.17959L18.4426 12.4463H20.2095L20.5621 11.4543H22.7331L22.9351 12.4463H24.5ZM21.9252 7.48748L22.4294 10.0461H21.0161L21.9252 7.48748Z" fill="#172B85" style="fill:#172B85;fill:color(display-p3 0.0902 0.1686 0.5216);fill-opacity:1;"/>
</svg>
